<svg width="316" height="170" viewBox="0 0 316 170" fill="none" xmlns="http://www.w3.org/2000/svg">
<path d="M238.481 89.6285V68.4509L246.655 69.194L247.769 68.6139V79.7828V88.5139L248.512 89.6285L247.826 156.877L270.062 143.13V72.5378L271.176 71.0517V56.4328L283.065 50.2456L280.465 53.2179V70.3086H281.208L280.465 141.644H282.322V143.13L245.54 165.793L246.283 168.023L242.196 169.137L234.394 167.28V164.679L237.366 163.564V90.7431L238.481 89.6285Z" fill="#3C3C3C"/>
<path d="M237.366 163.564V90.7431L238.481 89.6285V68.4509L246.655 69.194L247.769 68.6139V79.7828V88.5139L248.512 89.6285L247.826 156.877M237.366 163.564L234.394 164.679V167.28L242.196 169.137L246.283 168.023L245.54 165.793L282.322 143.13V141.644H280.465M237.366 163.564L244.054 164.679L247.769 162.45L247.826 156.877M280.465 141.644L281.208 70.3086H280.465V53.2179L283.065 50.2456L271.176 56.4328V71.0517L270.062 72.5378V143.13M280.465 141.644L275.263 144.987L270.062 143.13M270.062 143.13L247.826 156.877" stroke="#0C0C0C"/>
<path d="M37.8514 63.6209V42.8148L47.8829 44.301V62.8778H48.626L49.6822 130.126L75.005 116.379L74.6335 47.2733L80.5781 48.0163L85.7796 48.3879V114.893H87.6373V117.494L43.4244 140.529L35.9937 139.043V136.442L38.5945 134.956L37.1083 63.6209H37.8514Z" fill="#3C3C3C"/>
<path d="M38.5945 134.956L37.1083 63.6209H37.8514V42.8148L47.8829 44.301V62.8778H48.626L49.6822 130.126M38.5945 134.956L35.9937 136.442V139.043L43.4244 140.529L87.6373 117.494V114.893H85.7796M38.5945 134.956L44.5391 137.185L49.7406 133.841L49.6822 130.126M85.7796 114.893V48.3879L80.5781 48.0163L74.6335 47.2733L75.005 116.379M85.7796 114.893L80.5781 117.494L75.005 116.379M49.6822 130.126L75.005 116.379" stroke="#0C0C0C"/>
<path d="M301.257 39.6937V40.7933L247.299 69.1341L10 40.0013V39.3421L70.6543 13.141L301.257 39.6937Z" fill="#1D1D1D" stroke="#0C0C0C" stroke-width="3"/>
<g filter="url(#filter0_d_11_16)">
<path d="M248.513 71.0516V66.5932L302.757 37.6133L303.5 38.728V42.0718L248.513 71.0516Z" fill="currentColor"/>
<path d="M302.757 37.6133L248.513 66.5932V71.0516L303.5 42.0718V38.728L302.757 37.6133ZM302.757 37.6133L71.2897 10.8627L8.5 37.6133V41.3287" stroke="currentColor" stroke-width="3" stroke-linecap="round"/>
</g>
<defs>
<filter id="filter0_d_11_16" x="0.2" y="0.527026" width="315.6" height="81.8107" filterUnits="userSpaceOnUse" color-interpolation-filters="sRGB">
<feFlood flood-opacity="0" result="BackgroundImageFix"/>
<feColorMatrix in="SourceAlpha" type="matrix" values="0 0 0 0 0 0 0 0 0 0 0 0 0 0 0 0 0 0 127 0" result="hardAlpha"/>
<feOffset dx="2"/>
<feGaussianBlur stdDeviation="4.4"/>
<feComposite in2="hardAlpha" operator="out"/>
<feColorMatrix type="matrix" values="0 0 0 0 0.658824 0 0 0 0 0.156863 0 0 0 0 0.509804 0 0 0 1 0"/>
<feBlend mode="normal" in2="BackgroundImageFix" result="effect1_dropShadow_11_16"/>
<feBlend mode="normal" in="SourceGraphic" in2="effect1_dropShadow_11_16" result="shape"/>
</filter>
</defs>
</svg>
