<svg width="200" height="159" viewBox="0 0 200 159" fill="none" xmlns="http://www.w3.org/2000/svg">
<g filter="url(#filter0_d_9_59)">
<path d="M146 95.0731C159.527 95.0731 171.824 98.0666 180.774 102.957C189.687 107.827 195.5 114.719 195.5 122.573C195.5 130.427 189.687 137.319 180.774 142.189C171.824 147.08 159.527 150.073 146 150.073C132.473 150.073 120.176 147.08 111.226 142.189C102.751 137.559 97.0797 131.101 96.542 123.725C94.4237 124.116 91.6791 125.063 89.3496 126.81C86.642 128.841 84.5001 131.938 84.5 136.573C84.5 141.899 82.2581 145.324 79.3965 147.385C76.5859 149.408 73.2433 150.073 71 150.073H61.0498C58.7911 150.329 55.4458 149.973 52.6221 148.035C49.7089 146.035 47.5 142.455 47.5 136.573C47.4999 131.299 45.3252 128.099 42.666 126.184C39.9558 124.233 36.6733 123.573 34.5 123.573H20.9463C20.5604 129.048 18.0661 132.647 14.959 134.885C11.6275 137.283 7.65997 138.073 5 138.073H4V106.073H5C7.65997 106.073 11.6275 106.863 14.959 109.262C18.2515 111.632 20.8568 115.533 20.9932 121.573H34.5C36.9933 121.573 40.7109 122.313 43.834 124.561C47.0082 126.847 49.4999 130.647 49.5 136.573C49.5 141.892 51.4589 144.811 53.7539 146.387C56.1093 148.003 58.9736 148.309 60.8809 148.08L60.9404 148.073H71C72.9233 148.073 75.8309 147.488 78.2285 145.762C80.5751 144.072 82.5 141.247 82.5 136.573C82.5001 131.209 85.0247 127.555 88.1504 125.211C90.896 123.152 94.1088 122.094 96.5254 121.698C96.9393 114.207 102.645 107.645 111.226 102.957C120.176 98.0666 132.473 95.0731 146 95.0731ZM146 97.0731C132.742 97.0731 120.788 100.012 112.185 104.713C103.544 109.434 98.5 115.792 98.5 122.573C98.5 129.354 103.544 135.712 112.185 140.433C120.788 145.134 132.742 148.073 146 148.073C159.258 148.073 171.212 145.134 179.815 140.433C188.456 135.712 193.5 129.354 193.5 122.573C193.5 115.792 188.456 109.434 179.815 104.713C171.212 100.012 159.258 97.0731 146 97.0731ZM142.85 117.345H163.5L140.05 144.073L149.15 124.746H128.5L149.15 100.073L142.85 117.345ZM6 136.032C8.2751 135.857 11.2634 135.081 13.791 133.262C16.6584 131.197 19 127.747 19 122.073C19 116.399 16.6584 112.949 13.791 110.885C11.2634 109.065 8.27511 108.288 6 108.113V136.032ZM132.782 122.746H152.303L150.959 125.598L147.901 132.09L159.084 119.345H139.991L140.971 116.659L143.361 110.104L132.782 122.746Z" fill="#469758"/>
</g>
<path d="M110 10.0731C110 5.65481 113.582 2.07309 118 2.07309H174C178.418 2.07309 182 5.65481 182 10.0731V127.073C182 131.491 178.418 135.073 174 135.073H118C113.582 135.073 110 131.491 110 127.073V10.0731Z" fill="#3C3C3C" stroke="#0C0C0C" stroke-width="3"/>
<path d="M155.653 7.10629C156.41 7.18309 157 7.82182 157 8.59848C157 9.37514 156.41 10.0139 155.653 10.0907L155.5 10.0985H131.5C130.672 10.0985 130 9.42691 130 8.59848C130 7.77005 130.672 7.09848 131.5 7.09848H155.5L155.653 7.10629ZM160.615 7.077C161.373 7.13463 161.979 7.75868 161.999 8.535C162.019 9.31116 161.445 9.96414 160.691 10.0604L160.538 10.0721L159.538 10.0985C158.71 10.1195 158.021 9.46468 158 8.63657C157.979 7.80847 158.634 7.11958 159.462 7.09848L160.462 7.07309L160.615 7.077Z" fill="#0C0C0C"/>
<path d="M130 129.573H162" stroke="#7C7C7C" stroke-linecap="round"/>
<defs>
<filter id="filter0_d_9_59" x="0" y="95.0731" width="199.5" height="63.0731" filterUnits="userSpaceOnUse" color-interpolation-filters="sRGB">
<feFlood flood-opacity="0" result="BackgroundImageFix"/>
<feColorMatrix in="SourceAlpha" type="matrix" values="0 0 0 0 0 0 0 0 0 0 0 0 0 0 0 0 0 0 127 0" result="hardAlpha"/>
<feOffset dy="4"/>
<feGaussianBlur stdDeviation="2"/>
<feComposite in2="hardAlpha" operator="out"/>
<feColorMatrix type="matrix" values="0 0 0 0 0.127084 0 0 0 0 0.774038 0 0 0 0 0.0930335 0 0 0 0.25 0"/>
<feBlend mode="normal" in2="BackgroundImageFix" result="effect1_dropShadow_9_59"/>
<feBlend mode="normal" in="SourceGraphic" in2="effect1_dropShadow_9_59" result="shape"/>
</filter>
</defs>
</svg>
