<svg width="100" height="45" viewBox="0 0 100 45" fill="none" xmlns="http://www.w3.org/2000/svg">
<path d="M1 0C3.65997 0 7.62752 0.789907 10.959 3.18848C14.2515 5.55909 16.8568 9.45976 16.9932 15.5H30.5C32.9933 15.5 36.7109 16.2398 39.834 18.4883C43.0082 20.7737 45.4999 24.5741 45.5 30.5C45.5 35.8186 47.4589 38.7382 49.7539 40.3135C52.1093 41.93 54.9736 42.2358 56.8809 42.0068L56.9404 42H67C68.9233 42 71.8309 41.4148 74.2285 39.6885C76.5751 37.9989 78.5 35.1739 78.5 30.5C78.5001 25.1579 80.8783 21.5048 83.8828 19.1504C86.5326 17.074 89.6572 16.0131 92.0605 15.6201C92.1521 14.9359 92.3683 14.1335 92.8457 13.3828C93.5811 12.2264 94.8574 11.3083 96.8799 11.0645L97.1484 11.0361C97.4202 11.0121 97.704 11 98 11V15.252H99.5V17.252H98V21.5C97.7055 21.5 97.4234 21.4884 97.1533 21.4658L96.8867 21.4395C95.0879 21.2343 93.866 20.516 93.0898 19.5234C92.6152 18.9163 92.3414 18.2499 92.1826 17.627C90.0798 18.0007 87.3839 18.9486 85.1172 20.7246C82.5385 22.7453 80.5001 25.8425 80.5 30.5C80.5 35.8258 78.2581 39.2512 75.3965 41.3115C72.5859 43.335 69.2433 44 67 44H57.0498C54.7911 44.2559 51.4458 43.9 48.6221 41.9619C45.7089 39.9623 43.5 36.3816 43.5 30.5C43.4999 25.226 41.3252 22.0259 38.666 20.1113C35.9558 18.16 32.6733 17.5 30.5 17.5H16.9463C16.5604 22.9746 14.0661 26.5744 10.959 28.8115C7.62752 31.2101 3.65997 32 1 32H0V0H1ZM2 29.959C4.2751 29.7836 7.26343 29.0083 9.79102 27.1885C12.6584 25.1239 15 21.6739 15 16C15 10.3261 12.6584 6.87614 9.79102 4.81152C7.2634 2.99164 4.27511 2.21538 2 2.04004V29.959ZM96 13.3115C95.2502 13.5914 94.8096 14.023 94.5342 14.4561C94.1243 15.1006 94.0072 15.8663 94.001 16.4502C94.0715 17.1003 94.2528 17.7635 94.666 18.292C94.9368 18.6382 95.3465 18.9765 96 19.207V13.3115Z" fill="#469758"/>
</svg>
