<svg width="29" height="85" viewBox="0 0 29 85" fill="none" xmlns="http://www.w3.org/2000/svg">
<path d="M11.2495 16.5C13.7348 16.5 15.7495 18.5147 15.7495 21V50.1396C15.7519 50.1425 15.7539 50.1456 15.7563 50.1484C15.9243 49.932 16.1266 49.6405 16.3521 49.25C17.5947 47.0977 20.3472 46.36 22.4995 47.6025C24.6518 48.8451 25.3895 51.5977 24.147 53.75C22.9915 55.7514 21.5515 57.4523 19.6978 58.4961C17.7032 59.6191 15.5776 59.7793 13.6558 59.2207C10.5157 58.308 8.48379 55.6895 7.48779 53.9883L7.30225 53.6611L6.74951 52.6514V21C6.74951 18.5147 8.76423 16.5 11.2495 16.5ZM11.2495 0C15.1155 0 18.2495 3.13401 18.2495 7C18.2495 10.866 15.1155 14 11.2495 14C7.38352 14 4.24951 10.866 4.24951 7C4.24951 3.13401 7.38352 0 11.2495 0Z" fill="#E3E3E3"/>
<path d="M3.04474 68.8968V80.5332H1.63565V68.8968H3.04474ZM7.02912 75.2832V80.5332H5.68821V71.8059H6.98366V73.1696H7.0973C7.30185 72.7264 7.61245 72.3703 8.02912 72.1014C8.44579 71.8287 8.98366 71.6923 9.64276 71.6923C10.2337 71.6923 10.7507 71.8135 11.1939 72.0559C11.6371 72.2946 11.9818 72.6582 12.228 73.1468C12.4742 73.6317 12.5973 74.2453 12.5973 74.9877V80.5332H11.2564V75.0787C11.2564 74.3931 11.0784 73.859 10.7223 73.4764C10.3662 73.09 9.8776 72.8968 9.25639 72.8968C8.82836 72.8968 8.44579 72.9896 8.10866 73.1752C7.77533 73.3609 7.51207 73.6317 7.31889 73.9877C7.12571 74.3438 7.02912 74.7756 7.02912 75.2832ZM18.9339 71.8059V72.9423H14.2294V71.8059H18.9339ZM15.6385 80.5332V70.6014C15.6385 70.1014 15.7559 69.6847 15.9908 69.3514C16.2256 69.0181 16.5305 68.7681 16.9055 68.6014C17.2805 68.4347 17.6764 68.3514 18.093 68.3514C18.4226 68.3514 18.6915 68.3779 18.8999 68.4309C19.1082 68.484 19.2635 68.5332 19.3658 68.5787L18.9794 69.7377C18.9112 69.715 18.8165 69.6866 18.6953 69.6525C18.5779 69.6184 18.4226 69.6014 18.2294 69.6014C17.7862 69.6014 17.4661 69.7131 17.2692 69.9366C17.076 70.1601 16.9794 70.4877 16.9794 70.9196V80.5332H15.6385ZM23.9993 80.715C23.2114 80.715 22.5201 80.5275 21.9254 80.1525C21.3345 79.7775 20.8724 79.2529 20.5391 78.5787C20.2095 77.9044 20.0447 77.1165 20.0447 76.215C20.0447 75.3059 20.2095 74.5124 20.5391 73.8343C20.8724 73.1563 21.3345 72.6298 21.9254 72.2548C22.5201 71.8798 23.2114 71.6923 23.9993 71.6923C24.7872 71.6923 25.4766 71.8798 26.0675 72.2548C26.6622 72.6298 27.1243 73.1563 27.4538 73.8343C27.7872 74.5124 27.9538 75.3059 27.9538 76.215C27.9538 77.1165 27.7872 77.9044 27.4538 78.5787C27.1243 79.2529 26.6622 79.7775 26.0675 80.1525C25.4766 80.5275 24.7872 80.715 23.9993 80.715ZM23.9993 79.5105C24.5978 79.5105 25.0902 79.3571 25.4766 79.0502C25.8629 78.7434 26.1489 78.34 26.3345 77.84C26.5201 77.34 26.6129 76.7984 26.6129 76.215C26.6129 75.6317 26.5201 75.0881 26.3345 74.5843C26.1489 74.0806 25.8629 73.6734 25.4766 73.3627C25.0902 73.0521 24.5978 72.8968 23.9993 72.8968C23.4008 72.8968 22.9084 73.0521 22.522 73.3627C22.1357 73.6734 21.8497 74.0806 21.6641 74.5843C21.4785 75.0881 21.3857 75.6317 21.3857 76.215C21.3857 76.7984 21.4785 77.34 21.6641 77.84C21.8497 78.34 22.1357 78.7434 22.522 79.0502C22.9084 79.3571 23.4008 79.5105 23.9993 79.5105Z" fill="white"/>
</svg>
