<svg width="1654" height="750" viewBox="0 0 1654 750" fill="none" xmlns="http://www.w3.org/2000/svg">
<rect x="0.5" y="0.5" width="1653" height="749" rx="4.5" stroke="#9747FF" stroke-dasharray="10 5"/>
<path d="M162 20C175.527 20 187.824 22.9935 196.774 27.8838C205.687 32.7537 211.5 39.6456 211.5 47.5C211.5 55.3544 205.687 62.2463 196.774 67.1162C187.824 72.0065 175.527 75 162 75C148.473 75 136.176 72.0065 127.226 67.1162C118.751 62.486 113.08 56.0277 112.542 48.6523C110.424 49.043 107.679 49.9902 105.35 51.7373C102.642 53.768 100.5 56.8649 100.5 61.5C100.5 66.8258 98.2581 70.2512 95.3965 72.3115C92.5859 74.335 89.2433 75 87 75H77.0498C74.7911 75.2559 71.4458 74.9 68.6221 72.9619C65.7089 70.9623 63.5 67.3816 63.5 61.5C63.4999 56.226 61.3252 53.0259 58.666 51.1113C55.9558 49.16 52.6733 48.5 50.5 48.5H36.9463C36.5604 53.9746 34.0661 57.5744 30.959 59.8115C27.6275 62.2101 23.66 63 21 63H20V31H21C23.66 31 27.6275 31.7899 30.959 34.1885C34.2515 36.5591 36.8568 40.4598 36.9932 46.5H50.5C52.9933 46.5 56.7109 47.2398 59.834 49.4883C63.0082 51.7737 65.4999 55.5741 65.5 61.5C65.5 66.8186 67.4589 69.7382 69.7539 71.3135C72.1093 72.93 74.9736 73.2358 76.8809 73.0068L76.9404 73H87C88.9233 73 91.8309 72.4148 94.2285 70.6885C96.5751 68.9989 98.5 66.1739 98.5 61.5C98.5001 56.1356 101.025 52.482 104.15 50.1377C106.896 48.0785 110.109 47.0211 112.525 46.625C112.939 39.1343 118.645 32.572 127.226 27.8838C136.176 22.9935 148.473 20 162 20ZM162 22C148.742 22 136.788 24.9389 128.185 29.6396C119.544 34.3608 114.5 40.719 114.5 47.5C114.5 54.281 119.544 60.6392 128.185 65.3604C136.788 70.0611 148.742 73 162 73C175.258 73 187.212 70.0611 195.815 65.3604C204.456 60.6391 209.5 54.2811 209.5 47.5C209.5 40.7189 204.456 34.3609 195.815 29.6396C187.212 24.9389 175.258 22 162 22ZM158.85 42.2715H179.5L156.05 69L165.15 49.6729H144.5L165.15 25L158.85 42.2715ZM22 60.959C24.2751 60.7836 27.2634 60.0083 29.791 58.1885C32.6584 56.1239 35 52.6739 35 47C35 41.3261 32.6584 37.8761 29.791 35.8115C27.2634 33.9916 24.2751 33.2154 22 33.04V60.959ZM148.782 47.6729H168.303L166.959 50.5244L163.901 57.0166L175.084 44.2715H155.991L156.971 41.5859L159.361 35.0312L148.782 47.6729Z" fill="#469758"/>
<path d="M162 301C175.527 301 187.824 303.993 196.774 308.884C205.687 313.754 211.5 320.646 211.5 328.5C211.5 336.354 205.687 343.246 196.774 348.116C187.824 353.007 175.527 356 162 356C148.473 356 136.176 353.007 127.226 348.116C118.751 343.486 113.08 337.028 112.542 329.652C110.424 330.043 107.679 330.99 105.35 332.737C102.642 334.768 100.5 337.865 100.5 342.5C100.5 347.826 98.2581 351.251 95.3965 353.312C92.5859 355.335 89.2433 356 87 356H77.0498C74.7911 356.256 71.4458 355.9 68.6221 353.962C65.7089 351.962 63.5 348.382 63.5 342.5C63.4999 337.226 61.3252 334.026 58.666 332.111C55.9558 330.16 52.6733 329.5 50.5 329.5H36.9463C36.5604 334.975 34.0661 338.574 30.959 340.812C27.6275 343.21 23.66 344 21 344H20V312H21C23.66 312 27.6275 312.79 30.959 315.188C34.2515 317.559 36.8568 321.46 36.9932 327.5H50.5C52.9933 327.5 56.7109 328.24 59.834 330.488C63.0082 332.774 65.4999 336.574 65.5 342.5C65.5 347.819 67.4589 350.738 69.7539 352.313C72.1093 353.93 74.9736 354.236 76.8809 354.007L76.9404 354H87C88.9233 354 91.8309 353.415 94.2285 351.688C96.5751 349.999 98.5 347.174 98.5 342.5C98.5001 337.136 101.025 333.482 104.15 331.138C106.896 329.079 110.109 328.021 112.525 327.625C112.939 320.134 118.645 313.572 127.226 308.884C136.176 303.993 148.473 301 162 301ZM162 303C148.742 303 136.788 305.939 128.185 310.64C119.544 315.361 114.5 321.719 114.5 328.5C114.5 335.281 119.544 341.639 128.185 346.36C136.788 351.061 148.742 354 162 354C175.258 354 187.212 351.061 195.815 346.36C204.456 341.639 209.5 335.281 209.5 328.5C209.5 321.719 204.456 315.361 195.815 310.64C187.212 305.939 175.258 303 162 303ZM158.85 323.271H179.5L156.05 350L165.15 330.673H144.5L165.15 306L158.85 323.271ZM22 341.959C24.2751 341.784 27.2634 341.008 29.791 339.188C32.6584 337.124 35 333.674 35 328C35 322.326 32.6584 318.876 29.791 316.812C27.2634 314.992 24.2751 314.215 22 314.04V341.959ZM148.782 328.673H168.303L166.959 331.524L163.901 338.017L175.084 325.271H155.991L156.971 322.586L159.361 316.031L148.782 328.673Z" fill="#469758"/>
<path d="M162 393C175.527 393 187.824 395.993 196.774 400.884C205.687 405.754 211.5 412.646 211.5 420.5C211.5 428.354 205.687 435.246 196.774 440.116C187.824 445.007 175.527 448 162 448C148.473 448 136.176 445.007 127.226 440.116C118.751 435.486 113.08 429.028 112.542 421.652C110.424 422.043 107.679 422.99 105.35 424.737C102.642 426.768 100.5 429.865 100.5 434.5C100.5 439.826 98.2581 443.251 95.3965 445.312C92.5859 447.335 89.2433 448 87 448H77.0498C74.7911 448.256 71.4458 447.9 68.6221 445.962C65.7089 443.962 63.5 440.382 63.5 434.5C63.4999 429.226 61.3252 426.026 58.666 424.111C55.9558 422.16 52.6733 421.5 50.5 421.5H36.9463C36.5604 426.975 34.0661 430.574 30.959 432.812C27.6275 435.21 23.66 436 21 436H20V404H21C23.66 404 27.6275 404.79 30.959 407.188C34.2515 409.559 36.8568 413.46 36.9932 419.5H50.5C52.9933 419.5 56.7109 420.24 59.834 422.488C63.0082 424.774 65.4999 428.574 65.5 434.5C65.5 439.819 67.4589 442.738 69.7539 444.313C72.1093 445.93 74.9736 446.236 76.8809 446.007L76.9404 446H87C88.9233 446 91.8309 445.415 94.2285 443.688C96.5751 441.999 98.5 439.174 98.5 434.5C98.5001 429.136 101.025 425.482 104.15 423.138C106.896 421.079 110.109 420.021 112.525 419.625C112.939 412.134 118.645 405.572 127.226 400.884C136.176 395.993 148.473 393 162 393ZM162 395C148.742 395 136.788 397.939 128.185 402.64C119.544 407.361 114.5 413.719 114.5 420.5C114.5 427.281 119.544 433.639 128.185 438.36C136.788 443.061 148.742 446 162 446C175.258 446 187.212 443.061 195.815 438.36C204.456 433.639 209.5 427.281 209.5 420.5C209.5 413.719 204.456 407.361 195.815 402.64C187.212 397.939 175.258 395 162 395ZM158.85 415.271H179.5L156.05 442L165.15 422.673H144.5L165.15 398L158.85 415.271ZM22 433.959C24.2751 433.784 27.2634 433.008 29.791 431.188C32.6584 429.124 35 425.674 35 420C35 414.326 32.6584 410.876 29.791 408.812C27.2634 406.992 24.2751 406.215 22 406.04V433.959ZM148.782 420.673H168.303L166.959 423.524L163.901 430.017L175.084 417.271H155.991L156.971 414.586L159.361 408.031L148.782 420.673Z" fill="#469758"/>
<rect x="141.5" y="394.5" width="47" height="47" rx="6.5" fill="#7C7C7C" stroke="#0C0C0C" stroke-width="3"/>
<rect x="190" y="404" width="2" height="5" fill="#0C0C0C"/>
<path d="M154 378H176C176 378 176 388 177 390C178 392 179 393 179 393H151C151 393 152 392 153 390C154 388 154 378 154 378Z" fill="#0C0C0C"/>
<path d="M153 458H175C175 458 175 448 176 446C177 444 178 443 178 443H150C150 443 151 444 152 446C153 448 153 458 153 458Z" fill="#0C0C0C"/>
<path d="M393 393C406.527 393 418.824 395.993 427.774 400.884C436.687 405.754 442.5 412.646 442.5 420.5C442.5 428.354 436.687 435.246 427.774 440.116C418.824 445.007 406.527 448 393 448C379.473 448 367.176 445.007 358.226 440.116C349.751 435.486 344.08 429.028 343.542 421.652C341.424 422.043 338.679 422.99 336.35 424.737C333.642 426.768 331.5 429.865 331.5 434.5C331.5 439.826 329.258 443.251 326.396 445.312C323.586 447.335 320.243 448 318 448H308.05C305.791 448.256 302.446 447.9 299.622 445.962C296.709 443.962 294.5 440.382 294.5 434.5C294.5 429.226 292.325 426.026 289.666 424.111C286.956 422.16 283.673 421.5 281.5 421.5H267.946C267.56 426.975 265.066 430.574 261.959 432.812C258.628 435.21 254.66 436 252 436H251V404H252C254.66 404 258.628 404.79 261.959 407.188C265.251 409.559 267.857 413.46 267.993 419.5H281.5C283.993 419.5 287.711 420.24 290.834 422.488C294.008 424.774 296.5 428.574 296.5 434.5C296.5 439.819 298.459 442.738 300.754 444.313C303.109 445.93 305.974 446.236 307.881 446.007L307.94 446H318C319.923 446 322.831 445.415 325.229 443.688C327.575 441.999 329.5 439.174 329.5 434.5C329.5 429.136 332.025 425.482 335.15 423.138C337.896 421.079 341.109 420.021 343.525 419.625C343.939 412.134 349.645 405.572 358.226 400.884C367.176 395.993 379.473 393 393 393ZM393 395C379.742 395 367.788 397.939 359.185 402.64C350.544 407.361 345.5 413.719 345.5 420.5C345.5 427.281 350.544 433.639 359.185 438.36C367.788 443.061 379.742 446 393 446C406.258 446 418.212 443.061 426.815 438.36C435.456 433.639 440.5 427.281 440.5 420.5C440.5 413.719 435.456 407.361 426.815 402.64C418.212 397.939 406.258 395 393 395ZM389.85 415.271H410.5L387.05 442L396.15 422.673H375.5L396.15 398L389.85 415.271ZM253 433.959C255.275 433.784 258.263 433.008 260.791 431.188C263.658 429.124 266 425.674 266 420C266 414.326 263.658 410.876 260.791 408.812C258.263 406.992 255.275 406.215 253 406.04V433.959ZM379.782 420.673H399.303L397.959 423.524L394.901 430.017L406.084 417.271H386.991L387.971 414.586L390.361 408.031L379.782 420.673Z" fill="#469758"/>
<rect x="372.5" y="394.5" width="47" height="47" rx="6.5" fill="#7C7C7C" stroke="#0C0C0C" stroke-width="3"/>
<rect x="421" y="404" width="2" height="5" fill="#0C0C0C"/>
<path d="M385 378H407C407 378 407 388 408 390C409 392 410 393 410 393H382C382 393 383 392 384 390C385 388 385 378 385 378Z" fill="#0C0C0C"/>
<path d="M384 458H406C406 458 406 448 407 446C408 444 409 443 409 443H381C381 443 382 444 383 446C384 448 384 458 384 458Z" fill="#0C0C0C"/>
<rect x="384" y="429" width="22" height="9" rx="3" fill="#34C759"/>
<path d="M752 395C765.527 395 777.824 397.993 786.774 402.884C795.687 407.754 801.5 414.646 801.5 422.5C801.5 430.354 795.687 437.246 786.774 442.116C777.824 447.007 765.527 450 752 450C738.473 450 726.176 447.007 717.226 442.116C708.751 437.486 703.08 431.028 702.542 423.652C700.424 424.043 697.679 424.99 695.35 426.737C692.642 428.768 690.5 431.865 690.5 436.5C690.5 441.826 688.258 445.251 685.396 447.312C682.586 449.335 679.243 450 677 450H667.05C664.791 450.256 661.446 449.9 658.622 447.962C655.709 445.962 653.5 442.382 653.5 436.5C653.5 431.226 651.325 428.026 648.666 426.111C645.956 424.16 642.673 423.5 640.5 423.5H626.946C626.56 428.975 624.066 432.574 620.959 434.812C617.628 437.21 613.66 438 611 438H610V406H611C613.66 406 617.628 406.79 620.959 409.188C624.251 411.559 626.857 415.46 626.993 421.5H640.5C642.993 421.5 646.711 422.24 649.834 424.488C653.008 426.774 655.5 430.574 655.5 436.5C655.5 441.819 657.459 444.738 659.754 446.313C662.109 447.93 664.974 448.236 666.881 448.007L666.94 448H677C678.923 448 681.831 447.415 684.229 445.688C686.575 443.999 688.5 441.174 688.5 436.5C688.5 431.136 691.025 427.482 694.15 425.138C696.896 423.079 700.109 422.021 702.525 421.625C702.939 414.134 708.645 407.572 717.226 402.884C726.176 397.993 738.473 395 752 395ZM752 397C738.742 397 726.788 399.939 718.185 404.64C709.544 409.361 704.5 415.719 704.5 422.5C704.5 429.281 709.544 435.639 718.185 440.36C726.788 445.061 738.742 448 752 448C765.258 448 777.212 445.061 785.815 440.36C794.456 435.639 799.5 429.281 799.5 422.5C799.5 415.719 794.456 409.361 785.815 404.64C777.212 399.939 765.258 397 752 397ZM748.85 417.271H769.5L746.05 444L755.15 424.673H734.5L755.15 400L748.85 417.271ZM612 435.959C614.275 435.784 617.263 435.008 619.791 433.188C622.658 431.124 625 427.674 625 422C625 416.326 622.658 412.876 619.791 410.812C617.263 408.992 614.275 408.215 612 408.04V435.959ZM738.782 422.673H758.303L756.959 425.524L753.901 432.017L765.084 419.271H745.991L746.971 416.586L749.361 410.031L738.782 422.673Z" fill="#469758"/>
<rect x="731.5" y="396.5" width="47" height="47" rx="6.5" fill="#7C7C7C" stroke="#0C0C0C" stroke-width="3"/>
<rect x="780" y="406" width="2" height="5" fill="#0C0C0C"/>
<path d="M744 380H766C766 380 766 390 767 392C768 394 769 395 769 395H741C741 395 742 394 743 392C744 390 744 380 744 380Z" fill="#0C0C0C"/>
<path d="M743 460H765C765 460 765 450 766 448C767 446 768 445 768 445H740C740 445 741 446 742 448C743 450 743 460 743 460Z" fill="#0C0C0C"/>
<rect x="743" y="432" width="22" height="9" rx="3" fill="#34C759"/>
<rect x="743" y="421" width="22" height="9" rx="3" fill="#34C759"/>
<path d="M1111 392C1124.53 392 1136.82 394.993 1145.77 399.884C1154.69 404.754 1160.5 411.646 1160.5 419.5C1160.5 427.354 1154.69 434.246 1145.77 439.116C1136.82 444.007 1124.53 447 1111 447C1097.47 447 1085.18 444.007 1076.23 439.116C1067.75 434.486 1062.08 428.028 1061.54 420.652C1059.42 421.043 1056.68 421.99 1054.35 423.737C1051.64 425.768 1049.5 428.865 1049.5 433.5C1049.5 438.826 1047.26 442.251 1044.4 444.312C1041.59 446.335 1038.24 447 1036 447H1026.05C1023.79 447.256 1020.45 446.9 1017.62 444.962C1014.71 442.962 1012.5 439.382 1012.5 433.5C1012.5 428.226 1010.33 425.026 1007.67 423.111C1004.96 421.16 1001.67 420.5 999.5 420.5H985.946C985.56 425.975 983.066 429.574 979.959 431.812C976.628 434.21 972.66 435 970 435H969V403H970C972.66 403 976.628 403.79 979.959 406.188C983.251 408.559 985.857 412.46 985.993 418.5H999.5C1001.99 418.5 1005.71 419.24 1008.83 421.488C1012.01 423.774 1014.5 427.574 1014.5 433.5C1014.5 438.819 1016.46 441.738 1018.75 443.313C1021.11 444.93 1023.97 445.236 1025.88 445.007L1025.94 445H1036C1037.92 445 1040.83 444.415 1043.23 442.688C1045.58 440.999 1047.5 438.174 1047.5 433.5C1047.5 428.136 1050.02 424.482 1053.15 422.138C1055.9 420.079 1059.11 419.021 1061.53 418.625C1061.94 411.134 1067.65 404.572 1076.23 399.884C1085.18 394.993 1097.47 392 1111 392ZM1111 394C1097.74 394 1085.79 396.939 1077.18 401.64C1068.54 406.361 1063.5 412.719 1063.5 419.5C1063.5 426.281 1068.54 432.639 1077.18 437.36C1085.79 442.061 1097.74 445 1111 445C1124.26 445 1136.21 442.061 1144.82 437.36C1153.46 432.639 1158.5 426.281 1158.5 419.5C1158.5 412.719 1153.46 406.361 1144.82 401.64C1136.21 396.939 1124.26 394 1111 394ZM1107.85 414.271H1128.5L1105.05 441L1114.15 421.673H1093.5L1114.15 397L1107.85 414.271ZM971 432.959C973.275 432.784 976.263 432.008 978.791 430.188C981.658 428.124 984 424.674 984 419C984 413.326 981.658 409.876 978.791 407.812C976.263 405.992 973.275 405.215 971 405.04V432.959ZM1097.78 419.673H1117.3L1115.96 422.524L1112.9 429.017L1124.08 416.271H1104.99L1105.97 413.586L1108.36 407.031L1097.78 419.673Z" fill="#469758"/>
<rect x="1090.5" y="393.5" width="47" height="47" rx="6.5" fill="#7C7C7C" stroke="#0C0C0C" stroke-width="3"/>
<rect x="1139" y="403" width="2" height="5" fill="#0C0C0C"/>
<path d="M1103 377H1125C1125 377 1125 387 1126 389C1127 391 1128 392 1128 392H1100C1100 392 1101 391 1102 389C1103 387 1103 377 1103 377Z" fill="#0C0C0C"/>
<path d="M1102 457H1124C1124 457 1124 447 1125 445C1126 443 1127 442 1127 442H1099C1099 442 1100 443 1101 445C1102 447 1102 457 1102 457Z" fill="#0C0C0C"/>
<rect x="1102" y="429" width="22" height="9" rx="3" fill="#34C759"/>
<path d="M1102 421C1102 419.343 1103.34 418 1105 418H1121C1122.66 418 1124 419.343 1124 421V424C1124 425.657 1122.66 427 1121 427H1105C1103.34 427 1102 425.657 1102 424V421Z" fill="#34C759"/>
<rect x="1102" y="407" width="22" height="9" rx="3" fill="#34C759"/>
<path d="M1484 392C1497.53 392 1509.82 394.993 1518.77 399.884C1527.69 404.754 1533.5 411.646 1533.5 419.5C1533.5 427.354 1527.69 434.246 1518.77 439.116C1509.82 444.007 1497.53 447 1484 447C1470.47 447 1458.18 444.007 1449.23 439.116C1440.75 434.486 1435.08 428.028 1434.54 420.652C1432.42 421.043 1429.68 421.99 1427.35 423.737C1424.64 425.768 1422.5 428.865 1422.5 433.5C1422.5 438.826 1420.26 442.251 1417.4 444.312C1414.59 446.335 1411.24 447 1409 447H1399.05C1396.79 447.256 1393.45 446.9 1390.62 444.962C1387.71 442.962 1385.5 439.382 1385.5 433.5C1385.5 428.226 1383.33 425.026 1380.67 423.111C1377.96 421.16 1374.67 420.5 1372.5 420.5H1358.95C1358.56 425.975 1356.07 429.574 1352.96 431.812C1349.63 434.21 1345.66 435 1343 435H1342V403H1343C1345.66 403 1349.63 403.79 1352.96 406.188C1356.25 408.559 1358.86 412.46 1358.99 418.5H1372.5C1374.99 418.5 1378.71 419.24 1381.83 421.488C1385.01 423.774 1387.5 427.574 1387.5 433.5C1387.5 438.819 1389.46 441.738 1391.75 443.313C1394.11 444.93 1396.97 445.236 1398.88 445.007L1398.94 445H1409C1410.92 445 1413.83 444.415 1416.23 442.688C1418.58 440.999 1420.5 438.174 1420.5 433.5C1420.5 428.136 1423.02 424.482 1426.15 422.138C1428.9 420.079 1432.11 419.021 1434.53 418.625C1434.94 411.134 1440.65 404.572 1449.23 399.884C1458.18 394.993 1470.47 392 1484 392ZM1484 394C1470.74 394 1458.79 396.939 1450.18 401.64C1441.54 406.361 1436.5 412.719 1436.5 419.5C1436.5 426.281 1441.54 432.639 1450.18 437.36C1458.79 442.061 1470.74 445 1484 445C1497.26 445 1509.21 442.061 1517.82 437.36C1526.46 432.639 1531.5 426.281 1531.5 419.5C1531.5 412.719 1526.46 406.361 1517.82 401.64C1509.21 396.939 1497.26 394 1484 394ZM1480.85 414.271H1501.5L1478.05 441L1487.15 421.673H1466.5L1487.15 397L1480.85 414.271ZM1344 432.959C1346.28 432.784 1349.26 432.008 1351.79 430.188C1354.66 428.124 1357 424.674 1357 419C1357 413.326 1354.66 409.876 1351.79 407.812C1349.26 405.992 1346.28 405.215 1344 405.04V432.959ZM1470.78 419.673H1490.3L1488.96 422.524L1485.9 429.017L1497.08 416.271H1477.99L1478.97 413.586L1481.36 407.031L1470.78 419.673Z" fill="#469758"/>
<rect x="1463.5" y="393.5" width="47" height="47" rx="6.5" fill="#7C7C7C" stroke="#0C0C0C" stroke-width="3"/>
<rect x="1512" y="403" width="2" height="5" fill="#0C0C0C"/>
<path d="M1476 377H1498C1498 377 1498 387 1499 389C1500 391 1501 392 1501 392H1473C1473 392 1474 391 1475 389C1476 387 1476 377 1476 377Z" fill="#0C0C0C"/>
<path d="M1475 457H1497C1497 457 1497 447 1498 445C1499 443 1500 442 1500 442H1472C1472 442 1473 443 1474 445C1475 447 1475 457 1475 457Z" fill="#0C0C0C"/>
<rect x="1475" y="429" width="22" height="9" rx="3" fill="#34C759"/>
<path d="M1475 421C1475 419.343 1476.34 418 1478 418H1494C1495.66 418 1497 419.343 1497 421V424C1497 425.657 1495.66 427 1494 427H1478C1476.34 427 1475 425.657 1475 424V421Z" fill="#34C759"/>
<rect x="1475" y="407" width="22" height="9" rx="3" fill="#34C759"/>
<rect x="1475" y="396" width="22" height="9" rx="3" fill="#34C759"/>
<g filter="url(#filter0_d_9_58)">
<path d="M162 210.073C175.527 210.073 187.824 213.067 196.774 217.957C205.687 222.827 211.5 229.719 211.5 237.573C211.5 245.427 205.687 252.319 196.774 257.189C187.824 262.08 175.527 265.073 162 265.073C148.473 265.073 136.176 262.08 127.226 257.189C118.751 252.559 113.08 246.101 112.542 238.725C110.424 239.116 107.679 240.063 105.35 241.81C102.642 243.841 100.5 246.938 100.5 251.573C100.5 256.899 98.2581 260.324 95.3965 262.385C92.5859 264.408 89.2433 265.073 87 265.073H77.0498C74.7911 265.329 71.4458 264.973 68.6221 263.035C65.7089 261.035 63.5 257.455 63.5 251.573C63.4999 246.299 61.3252 243.099 58.666 241.184C55.9558 239.233 52.6733 238.573 50.5 238.573H36.9463C36.5604 244.048 34.0661 247.647 30.959 249.885C27.6275 252.283 23.66 253.073 21 253.073H20V221.073H21C23.66 221.073 27.6275 221.863 30.959 224.262C34.2515 226.632 36.8568 230.533 36.9932 236.573H50.5C52.9933 236.573 56.7109 237.313 59.834 239.561C63.0082 241.847 65.4999 245.647 65.5 251.573C65.5 256.892 67.4589 259.811 69.7539 261.387C72.1093 263.003 74.9736 263.309 76.8809 263.08L76.9404 263.073H87C88.9233 263.073 91.8309 262.488 94.2285 260.762C96.5751 259.072 98.5 256.247 98.5 251.573C98.5001 246.209 101.025 242.555 104.15 240.211C106.896 238.152 110.109 237.094 112.525 236.698C112.939 229.207 118.645 222.645 127.226 217.957C136.176 213.067 148.473 210.073 162 210.073ZM162 212.073C148.742 212.073 136.788 215.012 128.185 219.713C119.544 224.434 114.5 230.792 114.5 237.573C114.5 244.354 119.544 250.712 128.185 255.433C136.788 260.134 148.742 263.073 162 263.073C175.258 263.073 187.212 260.134 195.815 255.433C204.456 250.712 209.5 244.354 209.5 237.573C209.5 230.792 204.456 224.434 195.815 219.713C187.212 215.012 175.258 212.073 162 212.073ZM158.85 232.345H179.5L156.05 259.073L165.15 239.746H144.5L165.15 215.073L158.85 232.345ZM22 251.032C24.2751 250.857 27.2634 250.081 29.791 248.262C32.6584 246.197 35 242.747 35 237.073C35 231.399 32.6584 227.949 29.791 225.885C27.2634 224.065 24.2751 223.288 22 223.113V251.032ZM148.782 237.746H168.303L166.959 240.598L163.901 247.09L175.084 234.345H155.991L156.971 231.659L159.361 225.104L148.782 237.746Z" fill="#469758"/>
</g>
<path d="M126 125.073C126 120.655 129.582 117.073 134 117.073H190C194.418 117.073 198 120.655 198 125.073V242.073C198 246.491 194.418 250.073 190 250.073H134C129.582 250.073 126 246.491 126 242.073V125.073Z" fill="#3C3C3C" stroke="#0C0C0C" stroke-width="3"/>
<path d="M171.653 122.106C172.41 122.183 173 122.822 173 123.598C173 124.375 172.41 125.014 171.653 125.091L171.5 125.098H147.5C146.672 125.098 146 124.427 146 123.598C146 122.77 146.672 122.098 147.5 122.098H171.5L171.653 122.106ZM176.615 122.077C177.373 122.135 177.979 122.759 177.999 123.535C178.019 124.311 177.445 124.964 176.691 125.06L176.538 125.072L175.538 125.098C174.71 125.12 174.021 124.465 174 123.637C173.979 122.808 174.634 122.12 175.462 122.098L176.462 122.073L176.615 122.077Z" fill="#0C0C0C"/>
<path d="M146 244.573H178" stroke="#7C7C7C" stroke-linecap="round"/>
<g filter="url(#filter1_d_9_58)">
<path d="M393 210C406.527 210 418.824 212.993 427.774 217.884C436.687 222.754 442.5 229.646 442.5 237.5C442.5 245.354 436.687 252.246 427.774 257.116C418.824 262.007 406.527 265 393 265C379.473 265 367.176 262.007 358.226 257.116C349.751 252.486 344.08 246.028 343.542 238.652C341.424 239.043 338.679 239.99 336.35 241.737C333.642 243.768 331.5 246.865 331.5 251.5C331.5 256.826 329.258 260.251 326.396 262.312C323.586 264.335 320.243 265 318 265H308.05C305.791 265.256 302.446 264.9 299.622 262.962C296.709 260.962 294.5 257.382 294.5 251.5C294.5 246.226 292.325 243.026 289.666 241.111C286.956 239.16 283.673 238.5 281.5 238.5H267.946C267.56 243.975 265.066 247.574 261.959 249.812C258.628 252.21 254.66 253 252 253H251V221H252C254.66 221 258.628 221.79 261.959 224.188C265.251 226.559 267.857 230.46 267.993 236.5H281.5C283.993 236.5 287.711 237.24 290.834 239.488C294.008 241.774 296.5 245.574 296.5 251.5C296.5 256.819 298.459 259.738 300.754 261.313C303.109 262.93 305.974 263.236 307.881 263.007L307.94 263H318C319.923 263 322.831 262.415 325.229 260.688C327.575 258.999 329.5 256.174 329.5 251.5C329.5 246.136 332.025 242.482 335.15 240.138C337.896 238.079 341.109 237.021 343.525 236.625C343.939 229.134 349.645 222.572 358.226 217.884C367.176 212.993 379.473 210 393 210ZM393 212C379.742 212 367.788 214.939 359.185 219.64C350.544 224.361 345.5 230.719 345.5 237.5C345.5 244.281 350.544 250.639 359.185 255.36C367.788 260.061 379.742 263 393 263C406.258 263 418.212 260.061 426.815 255.36C435.456 250.639 440.5 244.281 440.5 237.5C440.5 230.719 435.456 224.361 426.815 219.64C418.212 214.939 406.258 212 393 212ZM389.85 232.271H410.5L387.05 259L396.15 239.673H375.5L396.15 215L389.85 232.271ZM253 250.959C255.275 250.784 258.263 250.008 260.791 248.188C263.658 246.124 266 242.674 266 237C266 231.326 263.658 227.876 260.791 225.812C258.263 223.992 255.275 223.215 253 223.04V250.959ZM379.782 237.673H399.303L397.959 240.524L394.901 247.017L406.084 234.271H386.991L387.971 231.586L390.361 225.031L379.782 237.673Z" fill="#469758"/>
</g>
<path d="M357 125C357 120.582 360.582 117 365 117H421C425.418 117 429 120.582 429 125V242C429 246.418 425.418 250 421 250H365C360.582 250 357 246.418 357 242V125Z" fill="#3C3C3C" stroke="#0C0C0C" stroke-width="3"/>
<path d="M402.653 122.033C403.41 122.11 404 122.749 404 123.525C404 124.302 403.41 124.941 402.653 125.018L402.5 125.025H378.5C377.672 125.025 377 124.354 377 123.525C377 122.697 377.672 122.025 378.5 122.025H402.5L402.653 122.033ZM407.615 122.004C408.373 122.062 408.979 122.686 408.999 123.462C409.019 124.238 408.445 124.891 407.691 124.987L407.538 124.999L406.538 125.025C405.71 125.046 405.021 124.392 405 123.563C404.979 122.735 405.634 122.046 406.462 122.025L407.462 122L407.615 122.004Z" fill="#0C0C0C"/>
<path d="M377 244.5H409" stroke="#7C7C7C" stroke-linecap="round"/>
<rect x="371" y="217" width="44" height="17" rx="3" fill="#34C759"/>
<g filter="url(#filter2_d_9_58)">
<path d="M752 209C765.527 209 777.824 211.993 786.774 216.884C795.687 221.754 801.5 228.646 801.5 236.5C801.5 244.354 795.687 251.246 786.774 256.116C777.824 261.007 765.527 264 752 264C738.473 264 726.176 261.007 717.226 256.116C708.751 251.486 703.08 245.028 702.542 237.652C700.424 238.043 697.679 238.99 695.35 240.737C692.642 242.768 690.5 245.865 690.5 250.5C690.5 255.826 688.258 259.251 685.396 261.312C682.586 263.335 679.243 264 677 264H667.05C664.791 264.256 661.446 263.9 658.622 261.962C655.709 259.962 653.5 256.382 653.5 250.5C653.5 245.226 651.325 242.026 648.666 240.111C645.956 238.16 642.673 237.5 640.5 237.5H626.946C626.56 242.975 624.066 246.574 620.959 248.812C617.628 251.21 613.66 252 611 252H610V220H611C613.66 220 617.628 220.79 620.959 223.188C624.251 225.559 626.857 229.46 626.993 235.5H640.5C642.993 235.5 646.711 236.24 649.834 238.488C653.008 240.774 655.5 244.574 655.5 250.5C655.5 255.819 657.459 258.738 659.754 260.313C662.109 261.93 664.974 262.236 666.881 262.007L666.94 262H677C678.923 262 681.831 261.415 684.229 259.688C686.575 257.999 688.5 255.174 688.5 250.5C688.5 245.136 691.025 241.482 694.15 239.138C696.896 237.079 700.109 236.021 702.525 235.625C702.939 228.134 708.645 221.572 717.226 216.884C726.176 211.993 738.473 209 752 209ZM752 211C738.742 211 726.788 213.939 718.185 218.64C709.544 223.361 704.5 229.719 704.5 236.5C704.5 243.281 709.544 249.639 718.185 254.36C726.788 259.061 738.742 262 752 262C765.258 262 777.212 259.061 785.815 254.36C794.456 249.639 799.5 243.281 799.5 236.5C799.5 229.719 794.456 223.361 785.815 218.64C777.212 213.939 765.258 211 752 211ZM748.85 231.271H769.5L746.05 258L755.15 238.673H734.5L755.15 214L748.85 231.271ZM612 249.959C614.275 249.784 617.263 249.008 619.791 247.188C622.658 245.124 625 241.674 625 236C625 230.326 622.658 226.876 619.791 224.812C617.263 222.992 614.275 222.215 612 222.04V249.959ZM738.782 236.673H758.303L756.959 239.524L753.901 246.017L765.084 233.271H745.991L746.971 230.586L749.361 224.031L738.782 236.673Z" fill="#469758"/>
</g>
<path d="M716 124C716 119.582 719.582 116 724 116H780C784.418 116 788 119.582 788 124V241C788 245.418 784.418 249 780 249H724C719.582 249 716 245.418 716 241V124Z" fill="#3C3C3C" stroke="#0C0C0C" stroke-width="3"/>
<path d="M761.653 121.033C762.41 121.11 763 121.749 763 122.525C763 123.302 762.41 123.941 761.653 124.018L761.5 124.025H737.5C736.672 124.025 736 123.354 736 122.525C736 121.697 736.672 121.025 737.5 121.025H761.5L761.653 121.033ZM766.615 121.004C767.373 121.062 767.979 121.686 767.999 122.462C768.019 123.238 767.445 123.891 766.691 123.987L766.538 123.999L765.538 124.025C764.71 124.046 764.021 123.392 764 122.563C763.979 121.735 764.634 121.046 765.462 121.025L766.462 121L766.615 121.004Z" fill="#0C0C0C"/>
<path d="M736 243.5H768" stroke="#7C7C7C" stroke-linecap="round"/>
<rect x="730" y="216" width="44" height="17" rx="3" fill="#34C759"/>
<rect x="730" y="191" width="44" height="17" rx="3" fill="#34C759"/>
<g filter="url(#filter3_d_9_58)">
<path d="M1111 209C1124.53 209 1136.82 211.993 1145.77 216.884C1154.69 221.754 1160.5 228.646 1160.5 236.5C1160.5 244.354 1154.69 251.246 1145.77 256.116C1136.82 261.007 1124.53 264 1111 264C1097.47 264 1085.18 261.007 1076.23 256.116C1067.75 251.486 1062.08 245.028 1061.54 237.652C1059.42 238.043 1056.68 238.99 1054.35 240.737C1051.64 242.768 1049.5 245.865 1049.5 250.5C1049.5 255.826 1047.26 259.251 1044.4 261.312C1041.59 263.335 1038.24 264 1036 264H1026.05C1023.79 264.256 1020.45 263.9 1017.62 261.962C1014.71 259.962 1012.5 256.382 1012.5 250.5C1012.5 245.226 1010.33 242.026 1007.67 240.111C1004.96 238.16 1001.67 237.5 999.5 237.5H985.946C985.56 242.975 983.066 246.574 979.959 248.812C976.628 251.21 972.66 252 970 252H969V220H970C972.66 220 976.628 220.79 979.959 223.188C983.251 225.559 985.857 229.46 985.993 235.5H999.5C1001.99 235.5 1005.71 236.24 1008.83 238.488C1012.01 240.774 1014.5 244.574 1014.5 250.5C1014.5 255.819 1016.46 258.738 1018.75 260.313C1021.11 261.93 1023.97 262.236 1025.88 262.007L1025.94 262H1036C1037.92 262 1040.83 261.415 1043.23 259.688C1045.58 257.999 1047.5 255.174 1047.5 250.5C1047.5 245.136 1050.02 241.482 1053.15 239.138C1055.9 237.079 1059.11 236.021 1061.53 235.625C1061.94 228.134 1067.65 221.572 1076.23 216.884C1085.18 211.993 1097.47 209 1111 209ZM1111 211C1097.74 211 1085.79 213.939 1077.18 218.64C1068.54 223.361 1063.5 229.719 1063.5 236.5C1063.5 243.281 1068.54 249.639 1077.18 254.36C1085.79 259.061 1097.74 262 1111 262C1124.26 262 1136.21 259.061 1144.82 254.36C1153.46 249.639 1158.5 243.281 1158.5 236.5C1158.5 229.719 1153.46 223.361 1144.82 218.64C1136.21 213.939 1124.26 211 1111 211ZM1107.85 231.271H1128.5L1105.05 258L1114.15 238.673H1093.5L1114.15 214L1107.85 231.271ZM971 249.959C973.275 249.784 976.263 249.008 978.791 247.188C981.658 245.124 984 241.674 984 236C984 230.326 981.658 226.876 978.791 224.812C976.263 222.992 973.275 222.215 971 222.04V249.959ZM1097.78 236.673H1117.3L1115.96 239.524L1112.9 246.017L1124.08 233.271H1104.99L1105.97 230.586L1108.36 224.031L1097.78 236.673Z" fill="#469758"/>
</g>
<path d="M1075 124C1075 119.582 1078.58 116 1083 116H1139C1143.42 116 1147 119.582 1147 124V241C1147 245.418 1143.42 249 1139 249H1083C1078.58 249 1075 245.418 1075 241V124Z" fill="#3C3C3C" stroke="#0C0C0C" stroke-width="3"/>
<path d="M1120.65 121.033C1121.41 121.11 1122 121.749 1122 122.525C1122 123.302 1121.41 123.941 1120.65 124.018L1120.5 124.025H1096.5C1095.67 124.025 1095 123.354 1095 122.525C1095 121.697 1095.67 121.025 1096.5 121.025H1120.5L1120.65 121.033ZM1125.62 121.004C1126.37 121.062 1126.98 121.686 1127 122.462C1127.02 123.238 1126.45 123.891 1125.69 123.987L1125.54 123.999L1124.54 124.025C1123.71 124.046 1123.02 123.392 1123 122.563C1122.98 121.735 1123.63 121.046 1124.46 121.025L1125.46 121L1125.62 121.004Z" fill="#0C0C0C"/>
<path d="M1095 243.5H1127" stroke="#7C7C7C" stroke-linecap="round"/>
<rect x="1089" y="216" width="44" height="17" rx="3" fill="#34C759"/>
<rect x="1089" y="191" width="44" height="17" rx="3" fill="#34C759"/>
<rect x="1089" y="166" width="44" height="17" rx="3" fill="#34C759"/>
<g filter="url(#filter4_d_9_58)">
<path d="M1484 216C1497.53 216 1509.82 218.993 1518.77 223.884C1527.69 228.754 1533.5 235.646 1533.5 243.5C1533.5 251.354 1527.69 258.246 1518.77 263.116C1509.82 268.007 1497.53 271 1484 271C1470.47 271 1458.18 268.007 1449.23 263.116C1440.75 258.486 1435.08 252.028 1434.54 244.652C1432.42 245.043 1429.68 245.99 1427.35 247.737C1424.64 249.768 1422.5 252.865 1422.5 257.5C1422.5 262.826 1420.26 266.251 1417.4 268.312C1414.59 270.335 1411.24 271 1409 271H1399.05C1396.79 271.256 1393.45 270.9 1390.62 268.962C1387.71 266.962 1385.5 263.382 1385.5 257.5C1385.5 252.226 1383.33 249.026 1380.67 247.111C1377.96 245.16 1374.67 244.5 1372.5 244.5H1358.95C1358.56 249.975 1356.07 253.574 1352.96 255.812C1349.63 258.21 1345.66 259 1343 259H1342V227H1343C1345.66 227 1349.63 227.79 1352.96 230.188C1356.25 232.559 1358.86 236.46 1358.99 242.5H1372.5C1374.99 242.5 1378.71 243.24 1381.83 245.488C1385.01 247.774 1387.5 251.574 1387.5 257.5C1387.5 262.819 1389.46 265.738 1391.75 267.313C1394.11 268.93 1396.97 269.236 1398.88 269.007L1398.94 269H1409C1410.92 269 1413.83 268.415 1416.23 266.688C1418.58 264.999 1420.5 262.174 1420.5 257.5C1420.5 252.136 1423.02 248.482 1426.15 246.138C1428.9 244.079 1432.11 243.021 1434.53 242.625C1434.94 235.134 1440.65 228.572 1449.23 223.884C1458.18 218.993 1470.47 216 1484 216ZM1484 218C1470.74 218 1458.79 220.939 1450.18 225.64C1441.54 230.361 1436.5 236.719 1436.5 243.5C1436.5 250.281 1441.54 256.639 1450.18 261.36C1458.79 266.061 1470.74 269 1484 269C1497.26 269 1509.21 266.061 1517.82 261.36C1526.46 256.639 1531.5 250.281 1531.5 243.5C1531.5 236.719 1526.46 230.361 1517.82 225.64C1509.21 220.939 1497.26 218 1484 218ZM1480.85 238.271H1501.5L1478.05 265L1487.15 245.673H1466.5L1487.15 221L1480.85 238.271ZM1344 256.959C1346.28 256.784 1349.26 256.008 1351.79 254.188C1354.66 252.124 1357 248.674 1357 243C1357 237.326 1354.66 233.876 1351.79 231.812C1349.26 229.992 1346.28 229.215 1344 229.04V256.959ZM1470.78 243.673H1490.3L1488.96 246.524L1485.9 253.017L1497.08 240.271H1477.99L1478.97 237.586L1481.36 231.031L1470.78 243.673Z" fill="#469758"/>
</g>
<path d="M1448 131C1448 126.582 1451.58 123 1456 123H1512C1516.42 123 1520 126.582 1520 131V248C1520 252.418 1516.42 256 1512 256H1456C1451.58 256 1448 252.418 1448 248V131Z" fill="#3C3C3C" stroke="#0C0C0C" stroke-width="3"/>
<path d="M1493.65 128.033C1494.41 128.11 1495 128.749 1495 129.525C1495 130.302 1494.41 130.941 1493.65 131.018L1493.5 131.025H1469.5C1468.67 131.025 1468 130.354 1468 129.525C1468 128.697 1468.67 128.025 1469.5 128.025H1493.5L1493.65 128.033ZM1498.62 128.004C1499.37 128.062 1499.98 128.686 1500 129.462C1500.02 130.238 1499.45 130.891 1498.69 130.987L1498.54 130.999L1497.54 131.025C1496.71 131.046 1496.02 130.392 1496 129.563C1495.98 128.735 1496.63 128.046 1497.46 128.025L1498.46 128L1498.62 128.004Z" fill="#0C0C0C"/>
<path d="M1468 250.5H1500" stroke="#7C7C7C" stroke-linecap="round"/>
<rect x="1462" y="223" width="44" height="17" rx="3" fill="#34C759"/>
<rect x="1462" y="198" width="44" height="17" rx="3" fill="#34C759"/>
<rect x="1462" y="148" width="44" height="17" rx="3" fill="#34C759"/>
<rect x="1462" y="173" width="44" height="17" rx="3" fill="#34C759"/>
<defs>
<filter id="filter0_d_9_58" x="16" y="210.073" width="199.5" height="63.0731" filterUnits="userSpaceOnUse" color-interpolation-filters="sRGB">
<feFlood flood-opacity="0" result="BackgroundImageFix"/>
<feColorMatrix in="SourceAlpha" type="matrix" values="0 0 0 0 0 0 0 0 0 0 0 0 0 0 0 0 0 0 127 0" result="hardAlpha"/>
<feOffset dy="4"/>
<feGaussianBlur stdDeviation="2"/>
<feComposite in2="hardAlpha" operator="out"/>
<feColorMatrix type="matrix" values="0 0 0 0 0.127084 0 0 0 0 0.774038 0 0 0 0 0.0930335 0 0 0 0.25 0"/>
<feBlend mode="normal" in2="BackgroundImageFix" result="effect1_dropShadow_9_58"/>
<feBlend mode="normal" in="SourceGraphic" in2="effect1_dropShadow_9_58" result="shape"/>
</filter>
<filter id="filter1_d_9_58" x="247" y="210" width="199.5" height="63.0731" filterUnits="userSpaceOnUse" color-interpolation-filters="sRGB">
<feFlood flood-opacity="0" result="BackgroundImageFix"/>
<feColorMatrix in="SourceAlpha" type="matrix" values="0 0 0 0 0 0 0 0 0 0 0 0 0 0 0 0 0 0 127 0" result="hardAlpha"/>
<feOffset dy="4"/>
<feGaussianBlur stdDeviation="2"/>
<feComposite in2="hardAlpha" operator="out"/>
<feColorMatrix type="matrix" values="0 0 0 0 0.127084 0 0 0 0 0.774038 0 0 0 0 0.0930335 0 0 0 0.25 0"/>
<feBlend mode="normal" in2="BackgroundImageFix" result="effect1_dropShadow_9_58"/>
<feBlend mode="normal" in="SourceGraphic" in2="effect1_dropShadow_9_58" result="shape"/>
</filter>
<filter id="filter2_d_9_58" x="606" y="209" width="199.5" height="63.0731" filterUnits="userSpaceOnUse" color-interpolation-filters="sRGB">
<feFlood flood-opacity="0" result="BackgroundImageFix"/>
<feColorMatrix in="SourceAlpha" type="matrix" values="0 0 0 0 0 0 0 0 0 0 0 0 0 0 0 0 0 0 127 0" result="hardAlpha"/>
<feOffset dy="4"/>
<feGaussianBlur stdDeviation="2"/>
<feComposite in2="hardAlpha" operator="out"/>
<feColorMatrix type="matrix" values="0 0 0 0 0.127084 0 0 0 0 0.774038 0 0 0 0 0.0930335 0 0 0 0.25 0"/>
<feBlend mode="normal" in2="BackgroundImageFix" result="effect1_dropShadow_9_58"/>
<feBlend mode="normal" in="SourceGraphic" in2="effect1_dropShadow_9_58" result="shape"/>
</filter>
<filter id="filter3_d_9_58" x="965" y="209" width="199.5" height="63.0731" filterUnits="userSpaceOnUse" color-interpolation-filters="sRGB">
<feFlood flood-opacity="0" result="BackgroundImageFix"/>
<feColorMatrix in="SourceAlpha" type="matrix" values="0 0 0 0 0 0 0 0 0 0 0 0 0 0 0 0 0 0 127 0" result="hardAlpha"/>
<feOffset dy="4"/>
<feGaussianBlur stdDeviation="2"/>
<feComposite in2="hardAlpha" operator="out"/>
<feColorMatrix type="matrix" values="0 0 0 0 0.127084 0 0 0 0 0.774038 0 0 0 0 0.0930335 0 0 0 0.25 0"/>
<feBlend mode="normal" in2="BackgroundImageFix" result="effect1_dropShadow_9_58"/>
<feBlend mode="normal" in="SourceGraphic" in2="effect1_dropShadow_9_58" result="shape"/>
</filter>
<filter id="filter4_d_9_58" x="1338" y="216" width="199.5" height="63.0731" filterUnits="userSpaceOnUse" color-interpolation-filters="sRGB">
<feFlood flood-opacity="0" result="BackgroundImageFix"/>
<feColorMatrix in="SourceAlpha" type="matrix" values="0 0 0 0 0 0 0 0 0 0 0 0 0 0 0 0 0 0 127 0" result="hardAlpha"/>
<feOffset dy="4"/>
<feGaussianBlur stdDeviation="2"/>
<feComposite in2="hardAlpha" operator="out"/>
<feColorMatrix type="matrix" values="0 0 0 0 0.127084 0 0 0 0 0.774038 0 0 0 0 0.0930335 0 0 0 0.25 0"/>
<feBlend mode="normal" in2="BackgroundImageFix" result="effect1_dropShadow_9_58"/>
<feBlend mode="normal" in="SourceGraphic" in2="effect1_dropShadow_9_58" result="shape"/>
</filter>
</defs>
</svg>
