<svg width="605" height="549" viewBox="0 0 605 549" fill="none" xmlns="http://www.w3.org/2000/svg">
<rect x="0.5" y="0.5" width="604" height="548" rx="4.5" stroke="#9747FF" stroke-dasharray="10 5"/>
<path d="M21 20C23.66 20 27.6275 20.7899 30.959 23.1885C34.2515 25.5591 36.8568 29.4598 36.9932 35.5H50.5C52.9933 35.5 56.7109 36.2398 59.834 38.4883C63.0082 40.7737 65.4999 44.5741 65.5 50.5C65.5 55.8186 67.4589 58.7382 69.7539 60.3135C72.1093 61.93 74.9736 62.2358 76.8809 62.0068L76.9404 62H87C88.9233 62 91.8309 61.4148 94.2285 59.6885C96.5751 57.9989 98.5 55.1739 98.5 50.5C98.5001 45.1579 100.878 41.5048 103.883 39.1504C106.533 37.074 109.657 36.0131 112.061 35.6201C112.152 34.9359 112.368 34.1335 112.846 33.3828C113.581 32.2264 114.857 31.3083 116.88 31.0645L117.148 31.0361C117.42 31.0121 117.704 31 118 31V35.252H119.5V37.252H118V41.5C117.706 41.5 117.423 41.4884 117.153 41.4658L116.887 41.4395C115.088 41.2343 113.866 40.516 113.09 39.5234C112.615 38.9163 112.341 38.2499 112.183 37.627C110.08 38.0007 107.384 38.9486 105.117 40.7246C102.538 42.7453 100.5 45.8425 100.5 50.5C100.5 55.8258 98.2581 59.2512 95.3965 61.3115C92.5859 63.335 89.2433 64 87 64H77.0498C74.7911 64.2559 71.4458 63.9 68.6221 61.9619C65.7089 59.9623 63.5 56.3816 63.5 50.5C63.4999 45.226 61.3252 42.0259 58.666 40.1113C55.9558 38.16 52.6733 37.5 50.5 37.5H36.9463C36.5604 42.9746 34.0661 46.5744 30.959 48.8115C27.6275 51.2101 23.66 52 21 52H20V20H21ZM22 49.959C24.2751 49.7836 27.2634 49.0083 29.791 47.1885C32.6584 45.1239 35 41.6739 35 36C35 30.3261 32.6584 26.8761 29.791 24.8115C27.2634 22.9916 24.2751 22.2154 22 22.04V49.959ZM116 33.3115C115.25 33.5914 114.81 34.023 114.534 34.4561C114.124 35.1006 114.007 35.8663 114.001 36.4502C114.072 37.1003 114.253 37.7635 114.666 38.292C114.937 38.6382 115.347 38.9765 116 39.207V33.3115Z" fill="#469758"/>
<g filter="url(#filter0_d_28_40)">
<path d="M21 106C23.66 106 27.6275 106.79 30.959 109.188C34.2515 111.559 36.8568 115.46 36.9932 121.5H50.5C52.9933 121.5 56.7109 122.24 59.834 124.488C63.0082 126.774 65.4999 130.574 65.5 136.5C65.5 141.819 67.4589 144.738 69.7539 146.313C72.1093 147.93 74.9736 148.236 76.8809 148.007L76.9404 148H87C88.9233 148 91.8309 147.415 94.2285 145.688C96.5751 143.999 98.5 141.174 98.5 136.5C98.5001 131.158 100.878 127.505 103.883 125.15C106.533 123.074 109.657 122.013 112.061 121.62C112.152 120.936 112.368 120.134 112.846 119.383C113.581 118.226 114.857 117.308 116.88 117.064L117.148 117.036C117.42 117.012 117.704 117 118 117V121.252H119.5V123.252H118V127.5C117.706 127.5 117.423 127.488 117.153 127.466L116.887 127.439C115.088 127.234 113.866 126.516 113.09 125.523C112.615 124.916 112.341 124.25 112.183 123.627C110.08 124.001 107.384 124.949 105.117 126.725C102.538 128.745 100.5 131.843 100.5 136.5C100.5 141.826 98.2581 145.251 95.3965 147.312C92.5859 149.335 89.2433 150 87 150H77.0498C74.7911 150.256 71.4458 149.9 68.6221 147.962C65.7089 145.962 63.5 142.382 63.5 136.5C63.4999 131.226 61.3252 128.026 58.666 126.111C55.9558 124.16 52.6733 123.5 50.5 123.5H36.9463C36.5604 128.975 34.0661 132.574 30.959 134.812C27.6275 137.21 23.66 138 21 138H20V106H21ZM22 135.959C24.2751 135.784 27.2634 135.008 29.791 133.188C32.6584 131.124 35 127.674 35 122C35 116.326 32.6584 112.876 29.791 110.812C27.2634 108.992 24.2751 108.215 22 108.04V135.959ZM116 119.312C115.25 119.591 114.81 120.023 114.534 120.456C114.124 121.101 114.007 121.866 114.001 122.45C114.072 123.1 114.253 123.763 114.666 124.292C114.937 124.638 115.347 124.977 116 125.207V119.312Z" fill="#469758"/>
</g>
<path d="M172.206 66.0137C193.804 66.5486 211.321 83.115 212.771 103.991C219.187 104.628 224.257 112.435 224.257 121.974C224.257 131.929 218.735 139.999 211.924 140C210.975 140 210.051 139.842 209.163 139.546C208.457 139.838 207.683 139.999 206.872 139.999H205.59C203.066 139.999 200.907 138.44 200.021 136.233C199.877 136.368 199.735 136.504 199.59 136.637V109.948C199.59 106.635 202.276 103.948 205.59 103.948H205.747C204.264 86.7408 189.468 73.0001 171.128 73C152.788 73.0002 137.992 86.7409 136.51 103.948H136.667C139.98 103.948 142.667 106.635 142.667 109.948V136.633C142.522 136.5 142.38 136.365 142.236 136.23C141.351 138.439 139.192 139.999 136.667 139.999H135.385C134.573 139.999 133.8 139.838 133.094 139.546C132.206 139.842 131.282 140 130.333 140C123.522 140 118 131.929 118 121.974C118 112.436 123.069 104.629 129.483 103.991C130.957 82.7688 149.038 66.0002 171.128 66L172.206 66.0137ZM148.359 103.948C150.455 103.948 152.154 105.648 152.154 107.743V136.205C152.154 138.301 150.455 140 148.359 140C146.264 140 144.564 138.301 144.564 136.205V107.743C144.565 105.648 146.264 103.948 148.359 103.948ZM193.897 103.948C195.993 103.948 197.692 105.648 197.692 107.743V136.205C197.692 138.301 195.993 140 193.897 140C191.802 140 190.103 138.301 190.103 136.205V107.743C190.103 105.648 191.802 103.948 193.897 103.948Z" fill="#0C0C0C"/>
<g filter="url(#filter1_d_28_40)">
<path d="M20 192C22.66 192 26.6275 192.79 29.959 195.188C33.2515 197.559 35.8568 201.46 35.9932 207.5H49.5C51.9933 207.5 55.7109 208.24 58.834 210.488C62.0082 212.774 64.4999 216.574 64.5 222.5C64.5 227.819 66.4589 230.738 68.7539 232.313C71.1093 233.93 73.9736 234.236 75.8809 234.007L75.9404 234H86C87.9233 234 90.8309 233.415 93.2285 231.688C95.5751 229.999 97.5 227.174 97.5 222.5C97.5001 217.158 99.8783 213.505 102.883 211.15C105.533 209.074 108.657 208.013 111.061 207.62C111.152 206.936 111.368 206.134 111.846 205.383C112.581 204.226 113.857 203.308 115.88 203.064L116.148 203.036C116.42 203.012 116.704 203 117 203V207.252H118.5V209.252H117V213.5C116.706 213.5 116.423 213.488 116.153 213.466L115.887 213.439C114.088 213.234 112.866 212.516 112.09 211.523C111.615 210.916 111.341 210.25 111.183 209.627C109.08 210.001 106.384 210.949 104.117 212.725C101.538 214.745 99.5001 217.843 99.5 222.5C99.5 227.826 97.2581 231.251 94.3965 233.312C91.5859 235.335 88.2433 236 86 236H76.0498C73.7911 236.256 70.4458 235.9 67.6221 233.962C64.7089 231.962 62.5 228.382 62.5 222.5C62.4999 217.226 60.3252 214.026 57.666 212.111C54.9558 210.16 51.6733 209.5 49.5 209.5H35.9463C35.5604 214.975 33.0661 218.574 29.959 220.812C26.6275 223.21 22.66 224 20 224H19V192H20ZM21 221.959C23.2751 221.784 26.2634 221.008 28.791 219.188C31.6584 217.124 34 213.674 34 208C34 202.326 31.6584 198.876 28.791 196.812C26.2634 194.992 23.2751 194.215 21 194.04V221.959ZM115 205.312C114.25 205.591 113.81 206.023 113.534 206.456C113.124 207.101 113.007 207.866 113.001 208.45C113.072 209.1 113.253 209.763 113.666 210.292C113.937 210.638 114.347 210.977 115 211.207V205.312Z" fill="#469758"/>
</g>
<rect x="153" y="194" width="6" height="28" rx="3" fill="#34C759"/>
<path d="M171.206 152.014C192.804 152.549 210.321 169.115 211.771 189.991C218.187 190.628 223.257 198.435 223.257 207.974C223.257 217.929 217.735 225.999 210.924 226C209.975 226 209.051 225.842 208.163 225.546C207.457 225.838 206.683 225.999 205.872 225.999H204.59C202.066 225.999 199.907 224.44 199.021 222.233C198.877 222.368 198.735 222.504 198.59 222.637V195.948C198.59 192.635 201.276 189.948 204.59 189.948H204.747C203.264 172.741 188.468 159 170.128 159C151.788 159 136.992 172.741 135.51 189.948H135.667C138.98 189.948 141.667 192.635 141.667 195.948V222.633C141.522 222.5 141.38 222.365 141.236 222.23C140.351 224.439 138.192 225.999 135.667 225.999H134.385C133.573 225.999 132.8 225.838 132.094 225.546C131.206 225.842 130.282 226 129.333 226C122.522 226 117 217.929 117 207.974C117 198.436 122.069 190.629 128.483 189.991C129.957 168.769 148.038 152 170.128 152L171.206 152.014ZM147.359 189.948C149.455 189.948 151.154 191.648 151.154 193.743V222.205C151.154 224.301 149.455 226 147.359 226C145.264 226 143.564 224.301 143.564 222.205V193.743C143.565 191.648 145.264 189.948 147.359 189.948ZM192.897 189.948C194.993 189.948 196.692 191.648 196.692 193.743V222.205C196.692 224.301 194.993 226 192.897 226C190.802 226 189.103 224.301 189.103 222.205V193.743C189.103 191.648 190.802 189.948 192.897 189.948Z" fill="#0C0C0C"/>
<g filter="url(#filter2_d_28_40)">
<path d="M21 278C23.66 278 27.6275 278.79 30.959 281.188C34.2515 283.559 36.8568 287.46 36.9932 293.5H50.5C52.9933 293.5 56.7109 294.24 59.834 296.488C63.0082 298.774 65.4999 302.574 65.5 308.5C65.5 313.819 67.4589 316.738 69.7539 318.313C72.1093 319.93 74.9736 320.236 76.8809 320.007L76.9404 320H87C88.9233 320 91.8309 319.415 94.2285 317.688C96.5751 315.999 98.5 313.174 98.5 308.5C98.5001 303.158 100.878 299.505 103.883 297.15C106.533 295.074 109.657 294.013 112.061 293.62C112.152 292.936 112.368 292.134 112.846 291.383C113.581 290.226 114.857 289.308 116.88 289.064L117.148 289.036C117.42 289.012 117.704 289 118 289V293.252H119.5V295.252H118V299.5C117.706 299.5 117.423 299.488 117.153 299.466L116.887 299.439C115.088 299.234 113.866 298.516 113.09 297.523C112.615 296.916 112.341 296.25 112.183 295.627C110.08 296.001 107.384 296.949 105.117 298.725C102.538 300.745 100.5 303.843 100.5 308.5C100.5 313.826 98.2581 317.251 95.3965 319.312C92.5859 321.335 89.2433 322 87 322H77.0498C74.7911 322.256 71.4458 321.9 68.6221 319.962C65.7089 317.962 63.5 314.382 63.5 308.5C63.4999 303.226 61.3252 300.026 58.666 298.111C55.9558 296.16 52.6733 295.5 50.5 295.5H36.9463C36.5604 300.975 34.0661 304.574 30.959 306.812C27.6275 309.21 23.66 310 21 310H20V278H21ZM22 307.959C24.2751 307.784 27.2634 307.008 29.791 305.188C32.6584 303.124 35 299.674 35 294C35 288.326 32.6584 284.876 29.791 282.812C27.2634 280.992 24.2751 280.215 22 280.04V307.959ZM116 291.312C115.25 291.591 114.81 292.023 114.534 292.456C114.124 293.101 114.007 293.866 114.001 294.45C114.072 295.1 114.253 295.763 114.666 296.292C114.937 296.638 115.347 296.977 116 297.207V291.312Z" fill="#469758"/>
</g>
<rect x="154" y="280" width="6" height="28" rx="3" fill="#34C759"/>
<rect x="163" y="280" width="6" height="28" rx="3" fill="#34C759"/>
<path d="M172.206 238.014C193.804 238.549 211.321 255.115 212.771 275.991C219.187 276.628 224.257 284.435 224.257 293.974C224.257 303.929 218.735 311.999 211.924 312C210.975 312 210.051 311.842 209.163 311.546C208.457 311.838 207.683 311.999 206.872 311.999H205.59C203.066 311.999 200.907 310.44 200.021 308.233C199.877 308.368 199.735 308.504 199.59 308.637V281.948C199.59 278.635 202.276 275.948 205.59 275.948H205.747C204.264 258.741 189.468 245 171.128 245C152.788 245 137.992 258.741 136.51 275.948H136.667C139.98 275.948 142.667 278.635 142.667 281.948V308.633C142.522 308.5 142.38 308.365 142.236 308.23C141.351 310.439 139.192 311.999 136.667 311.999H135.385C134.573 311.999 133.8 311.838 133.094 311.546C132.206 311.842 131.282 312 130.333 312C123.522 312 118 303.929 118 293.974C118 284.436 123.069 276.629 129.483 275.991C130.957 254.769 149.038 238 171.128 238L172.206 238.014ZM148.359 275.948C150.455 275.948 152.154 277.648 152.154 279.743V308.205C152.154 310.301 150.455 312 148.359 312C146.264 312 144.564 310.301 144.564 308.205V279.743C144.565 277.648 146.264 275.948 148.359 275.948ZM193.897 275.948C195.993 275.948 197.692 277.648 197.692 279.743V308.205C197.692 310.301 195.993 312 193.897 312C191.802 312 190.103 310.301 190.103 308.205V279.743C190.103 277.648 191.802 275.948 193.897 275.948Z" fill="#0C0C0C"/>
<g filter="url(#filter3_d_28_40)">
<path d="M21 361C23.66 361 27.6275 361.79 30.959 364.188C34.2515 366.559 36.8568 370.46 36.9932 376.5H50.5C52.9933 376.5 56.7109 377.24 59.834 379.488C63.0082 381.774 65.4999 385.574 65.5 391.5C65.5 396.819 67.4589 399.738 69.7539 401.313C72.1093 402.93 74.9736 403.236 76.8809 403.007L76.9404 403H87C88.9233 403 91.8309 402.415 94.2285 400.688C96.5751 398.999 98.5 396.174 98.5 391.5C98.5001 386.158 100.878 382.505 103.883 380.15C106.533 378.074 109.657 377.013 112.061 376.62C112.152 375.936 112.368 375.134 112.846 374.383C113.581 373.226 114.857 372.308 116.88 372.064L117.148 372.036C117.42 372.012 117.704 372 118 372V376.252H119.5V378.252H118V382.5C117.706 382.5 117.423 382.488 117.153 382.466L116.887 382.439C115.088 382.234 113.866 381.516 113.09 380.523C112.615 379.916 112.341 379.25 112.183 378.627C110.08 379.001 107.384 379.949 105.117 381.725C102.538 383.745 100.5 386.843 100.5 391.5C100.5 396.826 98.2581 400.251 95.3965 402.312C92.5859 404.335 89.2433 405 87 405H77.0498C74.7911 405.256 71.4458 404.9 68.6221 402.962C65.7089 400.962 63.5 397.382 63.5 391.5C63.4999 386.226 61.3252 383.026 58.666 381.111C55.9558 379.16 52.6733 378.5 50.5 378.5H36.9463C36.5604 383.975 34.0661 387.574 30.959 389.812C27.6275 392.21 23.66 393 21 393H20V361H21ZM22 390.959C24.2751 390.784 27.2634 390.008 29.791 388.188C32.6584 386.124 35 382.674 35 377C35 371.326 32.6584 367.876 29.791 365.812C27.2634 363.992 24.2751 363.215 22 363.04V390.959ZM116 374.312C115.25 374.591 114.81 375.023 114.534 375.456C114.124 376.101 114.007 376.866 114.001 377.45C114.072 378.1 114.253 378.763 114.666 379.292C114.937 379.638 115.347 379.977 116 380.207V374.312Z" fill="#469758"/>
</g>
<rect x="154" y="363" width="6" height="28" rx="3" fill="#34C759"/>
<rect x="163" y="363" width="6" height="28" rx="3" fill="#34C759"/>
<rect x="173" y="363" width="6" height="28" rx="3" fill="#34C759"/>
<path d="M172.206 321.014C193.804 321.549 211.321 338.115 212.771 358.991C219.187 359.628 224.257 367.435 224.257 376.974C224.257 386.929 218.735 394.999 211.924 395C210.975 395 210.051 394.842 209.163 394.546C208.457 394.838 207.683 394.999 206.872 394.999H205.59C203.066 394.999 200.907 393.44 200.021 391.233C199.877 391.368 199.735 391.504 199.59 391.637V364.948C199.59 361.635 202.276 358.948 205.59 358.948H205.747C204.264 341.741 189.468 328 171.128 328C152.788 328 137.992 341.741 136.51 358.948H136.667C139.98 358.948 142.667 361.635 142.667 364.948V391.633C142.522 391.5 142.38 391.365 142.236 391.23C141.351 393.439 139.192 394.999 136.667 394.999H135.385C134.573 394.999 133.8 394.838 133.094 394.546C132.206 394.842 131.282 395 130.333 395C123.522 395 118 386.929 118 376.974C118 367.436 123.069 359.629 129.483 358.991C130.957 337.769 149.038 321 171.128 321L172.206 321.014ZM148.359 358.948C150.455 358.948 152.154 360.648 152.154 362.743V391.205C152.154 393.301 150.455 395 148.359 395C146.264 395 144.564 393.301 144.564 391.205V362.743C144.565 360.648 146.264 358.948 148.359 358.948ZM193.897 358.948C195.993 358.948 197.692 360.648 197.692 362.743V391.205C197.692 393.301 195.993 395 193.897 395C191.802 395 190.103 393.301 190.103 391.205V362.743C190.103 360.648 191.802 358.948 193.897 358.948Z" fill="#0C0C0C"/>
<g filter="url(#filter4_d_28_40)">
<path d="M21 451C23.66 451 27.6275 451.79 30.959 454.188C34.2515 456.559 36.8568 460.46 36.9932 466.5H50.5C52.9933 466.5 56.7109 467.24 59.834 469.488C63.0082 471.774 65.4999 475.574 65.5 481.5C65.5 486.819 67.4589 489.738 69.7539 491.313C72.1093 492.93 74.9736 493.236 76.8809 493.007L76.9404 493H87C88.9233 493 91.8309 492.415 94.2285 490.688C96.5751 488.999 98.5 486.174 98.5 481.5C98.5001 476.158 100.878 472.505 103.883 470.15C106.533 468.074 109.657 467.013 112.061 466.62C112.152 465.936 112.368 465.134 112.846 464.383C113.581 463.226 114.857 462.308 116.88 462.064L117.148 462.036C117.42 462.012 117.704 462 118 462V466.252H119.5V468.252H118V472.5C117.706 472.5 117.423 472.488 117.153 472.466L116.887 472.439C115.088 472.234 113.866 471.516 113.09 470.523C112.615 469.916 112.341 469.25 112.183 468.627C110.08 469.001 107.384 469.949 105.117 471.725C102.538 473.745 100.5 476.843 100.5 481.5C100.5 486.826 98.2581 490.251 95.3965 492.312C92.5859 494.335 89.2433 495 87 495H77.0498C74.7911 495.256 71.4458 494.9 68.6221 492.962C65.7089 490.962 63.5 487.382 63.5 481.5C63.4999 476.226 61.3252 473.026 58.666 471.111C55.9558 469.16 52.6733 468.5 50.5 468.5H36.9463C36.5604 473.975 34.0661 477.574 30.959 479.812C27.6275 482.21 23.66 483 21 483H20V451H21ZM22 480.959C24.2751 480.784 27.2634 480.008 29.791 478.188C32.6584 476.124 35 472.674 35 467C35 461.326 32.6584 457.876 29.791 455.812C27.2634 453.992 24.2751 453.215 22 453.04V480.959ZM116 464.312C115.25 464.591 114.81 465.023 114.534 465.456C114.124 466.101 114.007 466.866 114.001 467.45C114.072 468.1 114.253 468.763 114.666 469.292C114.937 469.638 115.347 469.977 116 470.207V464.312Z" fill="#469758"/>
</g>
<rect x="154" y="453" width="6" height="28" rx="3" fill="#34C759"/>
<rect x="163" y="453" width="6" height="28" rx="3" fill="#34C759"/>
<rect x="173" y="453" width="6" height="28" rx="3" fill="#34C759"/>
<rect x="182" y="453" width="6" height="28" rx="3" fill="#34C759"/>
<path d="M172.206 411.014C193.804 411.549 211.321 428.115 212.771 448.991C219.187 449.628 224.257 457.435 224.257 466.974C224.257 476.929 218.735 484.999 211.924 485C210.975 485 210.051 484.842 209.163 484.546C208.457 484.838 207.683 484.999 206.872 484.999H205.59C203.066 484.999 200.907 483.44 200.021 481.233C199.877 481.368 199.735 481.504 199.59 481.637V454.948C199.59 451.635 202.276 448.948 205.59 448.948H205.747C204.264 431.741 189.468 418 171.128 418C152.788 418 137.992 431.741 136.51 448.948H136.667C139.98 448.948 142.667 451.635 142.667 454.948V481.633C142.522 481.5 142.38 481.365 142.236 481.23C141.351 483.439 139.192 484.999 136.667 484.999H135.385C134.573 484.999 133.8 484.838 133.094 484.546C132.206 484.842 131.282 485 130.333 485C123.522 485 118 476.929 118 466.974C118 457.436 123.069 449.629 129.483 448.991C130.957 427.769 149.038 411 171.128 411L172.206 411.014ZM148.359 448.948C150.455 448.948 152.154 450.648 152.154 452.743V481.205C152.154 483.301 150.455 485 148.359 485C146.264 485 144.564 483.301 144.564 481.205V452.743C144.565 450.648 146.264 448.948 148.359 448.948ZM193.897 448.948C195.993 448.948 197.692 450.648 197.692 452.743V481.205C197.692 483.301 195.993 485 193.897 485C191.802 485 190.103 483.301 190.103 481.205V452.743C190.103 450.648 191.802 448.948 193.897 448.948Z" fill="#0C0C0C"/>
<path d="M317 20C319.66 20 323.628 20.7899 326.959 23.1885C330.251 25.5591 332.857 29.4598 332.993 35.5H346.5C348.993 35.5 352.711 36.2398 355.834 38.4883C359.008 40.7737 361.5 44.5741 361.5 50.5C361.5 55.8186 363.459 58.7382 365.754 60.3135C368.109 61.93 370.974 62.2358 372.881 62.0068L372.94 62H383C384.923 62 387.831 61.4148 390.229 59.6885C392.575 57.9989 394.5 55.1739 394.5 50.5C394.5 45.1579 396.878 41.5048 399.883 39.1504C402.533 37.074 405.657 36.0131 408.061 35.6201C408.152 34.9359 408.368 34.1335 408.846 33.3828C409.581 32.2264 410.857 31.3083 412.88 31.0645L413.148 31.0361C413.42 31.0121 413.704 31 414 31V35.252H415.5V37.252H414V41.5C413.706 41.5 413.423 41.4884 413.153 41.4658L412.887 41.4395C411.088 41.2343 409.866 40.516 409.09 39.5234C408.615 38.9163 408.341 38.2499 408.183 37.627C406.08 38.0007 403.384 38.9486 401.117 40.7246C398.538 42.7453 396.5 45.8425 396.5 50.5C396.5 55.8258 394.258 59.2512 391.396 61.3115C388.586 63.335 385.243 64 383 64H373.05C370.791 64.2559 367.446 63.9 364.622 61.9619C361.709 59.9623 359.5 56.3816 359.5 50.5C359.5 45.226 357.325 42.0259 354.666 40.1113C351.956 38.16 348.673 37.5 346.5 37.5H332.946C332.56 42.9746 330.066 46.5744 326.959 48.8115C323.628 51.2101 319.66 52 317 52H316V20H317ZM318 49.959C320.275 49.7836 323.263 49.0083 325.791 47.1885C328.658 45.1239 331 41.6739 331 36C331 30.3261 328.658 26.8761 325.791 24.8115C323.263 22.9916 320.275 22.2154 318 22.04V49.959ZM412 33.3115C411.25 33.5914 410.81 34.023 410.534 34.4561C410.124 35.1006 410.007 35.8663 410.001 36.4502C410.072 37.1003 410.253 37.7635 410.666 38.292C410.937 38.6382 411.347 38.9765 412 39.207V33.3115Z" fill="#469758"/>
<path d="M317 106C319.66 106 323.628 106.79 326.959 109.188C330.251 111.559 332.857 115.46 332.993 121.5H346.5C348.993 121.5 352.711 122.24 355.834 124.488C359.008 126.774 361.5 130.574 361.5 136.5C361.5 141.819 363.459 144.738 365.754 146.313C368.109 147.93 370.974 148.236 372.881 148.007L372.94 148H383C384.923 148 387.831 147.415 390.229 145.688C392.575 143.999 394.5 141.174 394.5 136.5C394.5 131.158 396.878 127.505 399.883 125.15C402.533 123.074 405.657 122.013 408.061 121.62C408.152 120.936 408.368 120.134 408.846 119.383C409.581 118.226 410.857 117.308 412.88 117.064L413.148 117.036C413.42 117.012 413.704 117 414 117V121.252H415.5V123.252H414V127.5C413.706 127.5 413.423 127.488 413.153 127.466L412.887 127.439C411.088 127.234 409.866 126.516 409.09 125.523C408.615 124.916 408.341 124.25 408.183 123.627C406.08 124.001 403.384 124.949 401.117 126.725C398.538 128.745 396.5 131.843 396.5 136.5C396.5 141.826 394.258 145.251 391.396 147.312C388.586 149.335 385.243 150 383 150H373.05C370.791 150.256 367.446 149.9 364.622 147.962C361.709 145.962 359.5 142.382 359.5 136.5C359.5 131.226 357.325 128.026 354.666 126.111C351.956 124.16 348.673 123.5 346.5 123.5H332.946C332.56 128.975 330.066 132.574 326.959 134.812C323.628 137.21 319.66 138 317 138H316V106H317ZM318 135.959C320.275 135.784 323.263 135.008 325.791 133.188C328.658 131.124 331 127.674 331 122C331 116.326 328.658 112.876 325.791 110.812C323.263 108.992 320.275 108.215 318 108.04V135.959ZM412 119.312C411.25 119.591 410.81 120.023 410.534 120.456C410.124 121.101 410.007 121.866 410.001 122.45C410.072 123.1 410.253 123.763 410.666 124.292C410.937 124.638 411.347 124.977 412 125.207V119.312Z" fill="#469758"/>
<path d="M428.5 108.13V108.13C428.5 106.797 427.017 105.87 425.692 106.014C423.781 106.222 421.437 105.811 419.471 103.756C419.153 103.423 419 102.969 419 102.509V97.5951C419 97.1077 419.169 96.6289 419.541 96.3142C422.195 94.0702 428.971 92.0517 432.746 98.357C432.917 98.6431 433 98.977 433 99.3104V107.639M425 96.8387C428 96.8387 429.2 97.5259 430 100.275" stroke="#0C0C0C" stroke-width="2" stroke-linecap="round"/>
<path d="M441.5 108.13V108.13C441.5 106.797 442.982 105.87 444.307 106.014C446.218 106.222 448.562 105.811 450.528 103.756C450.846 103.423 451 102.969 451 102.509V97.5951C451 97.1077 450.83 96.6289 450.458 96.3142C447.804 94.0702 441.028 92.0517 437.253 98.357C437.082 98.6431 437 98.977 437 99.3104V107.639M445 96.8387C442 96.8387 440.8 97.5259 440 100.275" stroke="#0C0C0C" stroke-width="2" stroke-linecap="round"/>
<path d="M418 108.13C416.666 107.13 414 104.13 414 100.13C414 95.1296 418 90.1296 422 90.1296C425.162 90.1296 439.978 90.1296 447.243 90.1296C447.417 90.1296 447.585 90.1509 447.752 90.2015C450.32 90.983 455 93.816 455 100.008C455 106.408 451.999 108.008 451.999 108.008" stroke="#0C0C0C" stroke-width="3" stroke-linecap="round"/>
<path d="M429.5 116.5H438" stroke="#0C0C0C" stroke-width="3" stroke-linecap="round"/>
<path d="M453 110.5H415.5V126.5C415.5 132.5 421.167 134.667 424 135H444C450 135 452.5 129 453 126V110.5Z" stroke="#0C0C0C" stroke-width="3" stroke-linecap="round"/>
<path d="M317 182C319.66 182 323.628 182.79 326.959 185.188C330.251 187.559 332.857 191.46 332.993 197.5H346.5C348.993 197.5 352.711 198.24 355.834 200.488C359.008 202.774 361.5 206.574 361.5 212.5C361.5 217.819 363.459 220.738 365.754 222.313C368.109 223.93 370.974 224.236 372.881 224.007L372.94 224H383C384.923 224 387.831 223.415 390.229 221.688C392.575 219.999 394.5 217.174 394.5 212.5C394.5 207.158 396.878 203.505 399.883 201.15C402.533 199.074 405.657 198.013 408.061 197.62C408.152 196.936 408.368 196.134 408.846 195.383C409.581 194.226 410.857 193.308 412.88 193.064L413.148 193.036C413.42 193.012 413.704 193 414 193V197.252H415.5V199.252H414V203.5C413.706 203.5 413.423 203.488 413.153 203.466L412.887 203.439C411.088 203.234 409.866 202.516 409.09 201.523C408.615 200.916 408.341 200.25 408.183 199.627C406.08 200.001 403.384 200.949 401.117 202.725C398.538 204.745 396.5 207.843 396.5 212.5C396.5 217.826 394.258 221.251 391.396 223.312C388.586 225.335 385.243 226 383 226H373.05C370.791 226.256 367.446 225.9 364.622 223.962C361.709 221.962 359.5 218.382 359.5 212.5C359.5 207.226 357.325 204.026 354.666 202.111C351.956 200.16 348.673 199.5 346.5 199.5H332.946C332.56 204.975 330.066 208.574 326.959 210.812C323.628 213.21 319.66 214 317 214H316V182H317ZM318 211.959C320.275 211.784 323.263 211.008 325.791 209.188C328.658 207.124 331 203.674 331 198C331 192.326 328.658 188.876 325.791 186.812C323.263 184.992 320.275 184.215 318 184.04V211.959ZM412 195.312C411.25 195.591 410.81 196.023 410.534 196.456C410.124 197.101 410.007 197.866 410.001 198.45C410.072 199.1 410.253 199.763 410.666 200.292C410.937 200.638 411.347 200.977 412 201.207V195.312Z" fill="#469758"/>
<path d="M428.5 184.13V184.13C428.5 182.797 427.017 181.87 425.692 182.014C423.781 182.222 421.437 181.811 419.471 179.756C419.153 179.423 419 178.969 419 178.509V173.595C419 173.108 419.169 172.629 419.541 172.314C422.195 170.07 428.971 168.052 432.746 174.357C432.917 174.643 433 174.977 433 175.31V183.639M425 172.839C428 172.839 429.2 173.526 430 176.275" stroke="#0C0C0C" stroke-width="2" stroke-linecap="round"/>
<path d="M441.5 184.13V184.13C441.5 182.797 442.982 181.87 444.307 182.014C446.218 182.222 448.562 181.811 450.528 179.756C450.846 179.423 451 178.969 451 178.509V173.595C451 173.108 450.83 172.629 450.458 172.314C447.804 170.07 441.028 168.052 437.253 174.357C437.082 174.643 437 174.977 437 175.31V183.639M445 172.839C442 172.839 440.8 173.526 440 176.275" stroke="#0C0C0C" stroke-width="2" stroke-linecap="round"/>
<path d="M418 184.13C416.666 183.13 414 180.13 414 176.13C414 171.13 418 166.13 422 166.13C425.162 166.13 439.978 166.13 447.243 166.13C447.417 166.13 447.585 166.151 447.752 166.202C450.32 166.983 455 169.816 455 176.008C455 182.408 451.999 184.008 451.999 184.008" stroke="#0C0C0C" stroke-width="3" stroke-linecap="round"/>
<path d="M429.5 192.5H438" stroke="#0C0C0C" stroke-width="3" stroke-linecap="round"/>
<path d="M453 186.5H415.5V202.5C415.5 208.5 421.167 210.667 424 211H444C450 211 452.5 205 453 202V186.5Z" stroke="#0C0C0C" stroke-width="3" stroke-linecap="round"/>
<rect x="421" y="194" width="4" height="13" rx="2" fill="#34C759"/>
<path d="M317 268C319.66 268 323.628 268.79 326.959 271.188C330.251 273.559 332.857 277.46 332.993 283.5H346.5C348.993 283.5 352.711 284.24 355.834 286.488C359.008 288.774 361.5 292.574 361.5 298.5C361.5 303.819 363.459 306.738 365.754 308.313C368.109 309.93 370.974 310.236 372.881 310.007L372.94 310H383C384.923 310 387.831 309.415 390.229 307.688C392.575 305.999 394.5 303.174 394.5 298.5C394.5 293.158 396.878 289.505 399.883 287.15C402.533 285.074 405.657 284.013 408.061 283.62C408.152 282.936 408.368 282.134 408.846 281.383C409.581 280.226 410.857 279.308 412.88 279.064L413.148 279.036C413.42 279.012 413.704 279 414 279V283.252H415.5V285.252H414V289.5C413.706 289.5 413.423 289.488 413.153 289.466L412.887 289.439C411.088 289.234 409.866 288.516 409.09 287.523C408.615 286.916 408.341 286.25 408.183 285.627C406.08 286.001 403.384 286.949 401.117 288.725C398.538 290.745 396.5 293.843 396.5 298.5C396.5 303.826 394.258 307.251 391.396 309.312C388.586 311.335 385.243 312 383 312H373.05C370.791 312.256 367.446 311.9 364.622 309.962C361.709 307.962 359.5 304.382 359.5 298.5C359.5 293.226 357.325 290.026 354.666 288.111C351.956 286.16 348.673 285.5 346.5 285.5H332.946C332.56 290.975 330.066 294.574 326.959 296.812C323.628 299.21 319.66 300 317 300H316V268H317ZM318 297.959C320.275 297.784 323.263 297.008 325.791 295.188C328.658 293.124 331 289.674 331 284C331 278.326 328.658 274.876 325.791 272.812C323.263 270.992 320.275 270.215 318 270.04V297.959ZM412 281.312C411.25 281.591 410.81 282.023 410.534 282.456C410.124 283.101 410.007 283.866 410.001 284.45C410.072 285.1 410.253 285.763 410.666 286.292C410.937 286.638 411.347 286.977 412 287.207V281.312Z" fill="#469758"/>
<path d="M428.5 270.13V270.13C428.5 268.797 427.017 267.87 425.692 268.014C423.781 268.222 421.437 267.811 419.471 265.756C419.153 265.423 419 264.969 419 264.509V259.595C419 259.108 419.169 258.629 419.541 258.314C422.195 256.07 428.971 254.052 432.746 260.357C432.917 260.643 433 260.977 433 261.31V269.639M425 258.839C428 258.839 429.2 259.526 430 262.275" stroke="#0C0C0C" stroke-width="2" stroke-linecap="round"/>
<path d="M441.5 270.13V270.13C441.5 268.797 442.982 267.87 444.307 268.014C446.218 268.222 448.562 267.811 450.528 265.756C450.846 265.423 451 264.969 451 264.509V259.595C451 259.108 450.83 258.629 450.458 258.314C447.804 256.07 441.028 254.052 437.253 260.357C437.082 260.643 437 260.977 437 261.31V269.639M445 258.839C442 258.839 440.8 259.526 440 262.275" stroke="#0C0C0C" stroke-width="2" stroke-linecap="round"/>
<path d="M418 270.13C416.666 269.13 414 266.13 414 262.13C414 257.13 418 252.13 422 252.13C425.162 252.13 439.978 252.13 447.243 252.13C447.417 252.13 447.585 252.151 447.752 252.202C450.32 252.983 455 255.816 455 262.008C455 268.408 451.999 270.008 451.999 270.008" stroke="#0C0C0C" stroke-width="3" stroke-linecap="round"/>
<path d="M429.5 278.5H438" stroke="#0C0C0C" stroke-width="3" stroke-linecap="round"/>
<path d="M453 272.5H415.5V288.5C415.5 294.5 421.167 296.667 424 297H444C450 297 452.5 291 453 288V272.5Z" stroke="#0C0C0C" stroke-width="3" stroke-linecap="round"/>
<rect x="421" y="280" width="4" height="13" rx="2" fill="#34C759"/>
<rect x="428" y="280" width="4" height="13" rx="2" fill="#34C759"/>
<path d="M317 351C319.66 351 323.628 351.79 326.959 354.188C330.251 356.559 332.857 360.46 332.993 366.5H346.5C348.993 366.5 352.711 367.24 355.834 369.488C359.008 371.774 361.5 375.574 361.5 381.5C361.5 386.819 363.459 389.738 365.754 391.313C368.109 392.93 370.974 393.236 372.881 393.007L372.94 393H383C384.923 393 387.831 392.415 390.229 390.688C392.575 388.999 394.5 386.174 394.5 381.5C394.5 376.158 396.878 372.505 399.883 370.15C402.533 368.074 405.657 367.013 408.061 366.62C408.152 365.936 408.368 365.134 408.846 364.383C409.581 363.226 410.857 362.308 412.88 362.064L413.148 362.036C413.42 362.012 413.704 362 414 362V366.252H415.5V368.252H414V372.5C413.706 372.5 413.423 372.488 413.153 372.466L412.887 372.439C411.088 372.234 409.866 371.516 409.09 370.523C408.615 369.916 408.341 369.25 408.183 368.627C406.08 369.001 403.384 369.949 401.117 371.725C398.538 373.745 396.5 376.843 396.5 381.5C396.5 386.826 394.258 390.251 391.396 392.312C388.586 394.335 385.243 395 383 395H373.05C370.791 395.256 367.446 394.9 364.622 392.962C361.709 390.962 359.5 387.382 359.5 381.5C359.5 376.226 357.325 373.026 354.666 371.111C351.956 369.16 348.673 368.5 346.5 368.5H332.946C332.56 373.975 330.066 377.574 326.959 379.812C323.628 382.21 319.66 383 317 383H316V351H317ZM318 380.959C320.275 380.784 323.263 380.008 325.791 378.188C328.658 376.124 331 372.674 331 367C331 361.326 328.658 357.876 325.791 355.812C323.263 353.992 320.275 353.215 318 353.04V380.959ZM412 364.312C411.25 364.591 410.81 365.023 410.534 365.456C410.124 366.101 410.007 366.866 410.001 367.45C410.072 368.1 410.253 368.763 410.666 369.292C410.937 369.638 411.347 369.977 412 370.207V364.312Z" fill="#469758"/>
<path d="M428.5 353.13V353.13C428.5 351.797 427.017 350.87 425.692 351.014C423.781 351.222 421.437 350.811 419.471 348.756C419.153 348.423 419 347.969 419 347.509V342.595C419 342.108 419.169 341.629 419.541 341.314C422.195 339.07 428.971 337.052 432.746 343.357C432.917 343.643 433 343.977 433 344.31V352.639M425 341.839C428 341.839 429.2 342.526 430 345.275" stroke="#0C0C0C" stroke-width="2" stroke-linecap="round"/>
<path d="M441.5 353.13V353.13C441.5 351.797 442.982 350.87 444.307 351.014C446.218 351.222 448.562 350.811 450.528 348.756C450.846 348.423 451 347.969 451 347.509V342.595C451 342.108 450.83 341.629 450.458 341.314C447.804 339.07 441.028 337.052 437.253 343.357C437.082 343.643 437 343.977 437 344.31V352.639M445 341.839C442 341.839 440.8 342.526 440 345.275" stroke="#0C0C0C" stroke-width="2" stroke-linecap="round"/>
<path d="M418 353.13C416.666 352.13 414 349.13 414 345.13C414 340.13 418 335.13 422 335.13C425.162 335.13 439.978 335.13 447.243 335.13C447.417 335.13 447.585 335.151 447.752 335.202C450.32 335.983 455 338.816 455 345.008C455 351.408 451.999 353.008 451.999 353.008" stroke="#0C0C0C" stroke-width="3" stroke-linecap="round"/>
<path d="M429.5 361.5H438" stroke="#0C0C0C" stroke-width="3" stroke-linecap="round"/>
<path d="M453 355.5H415.5V371.5C415.5 377.5 421.167 379.667 424 380H444C450 380 452.5 374 453 371V355.5Z" stroke="#0C0C0C" stroke-width="3" stroke-linecap="round"/>
<rect x="421" y="363" width="4" height="13" rx="2" fill="#34C759"/>
<rect x="428" y="363" width="4" height="13" rx="2" fill="#34C759"/>
<rect x="436" y="363" width="4" height="13" rx="2" fill="#34C759"/>
<path d="M317 451C319.66 451 323.628 451.79 326.959 454.188C330.251 456.559 332.857 460.46 332.993 466.5H346.5C348.993 466.5 352.711 467.24 355.834 469.488C359.008 471.774 361.5 475.574 361.5 481.5C361.5 486.819 363.459 489.738 365.754 491.313C368.109 492.93 370.974 493.236 372.881 493.007L372.94 493H383C384.923 493 387.831 492.415 390.229 490.688C392.575 488.999 394.5 486.174 394.5 481.5C394.5 476.158 396.878 472.505 399.883 470.15C402.533 468.074 405.657 467.013 408.061 466.62C408.152 465.936 408.368 465.134 408.846 464.383C409.581 463.226 410.857 462.308 412.88 462.064L413.148 462.036C413.42 462.012 413.704 462 414 462V466.252H415.5V468.252H414V472.5C413.706 472.5 413.423 472.488 413.153 472.466L412.887 472.439C411.088 472.234 409.866 471.516 409.09 470.523C408.615 469.916 408.341 469.25 408.183 468.627C406.08 469.001 403.384 469.949 401.117 471.725C398.538 473.745 396.5 476.843 396.5 481.5C396.5 486.826 394.258 490.251 391.396 492.312C388.586 494.335 385.243 495 383 495H373.05C370.791 495.256 367.446 494.9 364.622 492.962C361.709 490.962 359.5 487.382 359.5 481.5C359.5 476.226 357.325 473.026 354.666 471.111C351.956 469.16 348.673 468.5 346.5 468.5H332.946C332.56 473.975 330.066 477.574 326.959 479.812C323.628 482.21 319.66 483 317 483H316V451H317ZM318 480.959C320.275 480.784 323.263 480.008 325.791 478.188C328.658 476.124 331 472.674 331 467C331 461.326 328.658 457.876 325.791 455.812C323.263 453.992 320.275 453.215 318 453.04V480.959ZM412 464.312C411.25 464.591 410.81 465.023 410.534 465.456C410.124 466.101 410.007 466.866 410.001 467.45C410.072 468.1 410.253 468.763 410.666 469.292C410.937 469.638 411.347 469.977 412 470.207V464.312Z" fill="#469758"/>
<path d="M428.5 453.13V453.13C428.5 451.797 427.017 450.87 425.692 451.014C423.781 451.222 421.437 450.811 419.471 448.756C419.153 448.423 419 447.969 419 447.509V442.595C419 442.108 419.169 441.629 419.541 441.314C422.195 439.07 428.971 437.052 432.746 443.357C432.917 443.643 433 443.977 433 444.31V452.639M425 441.839C428 441.839 429.2 442.526 430 445.275" stroke="#0C0C0C" stroke-width="2" stroke-linecap="round"/>
<path d="M441.5 453.13V453.13C441.5 451.797 442.982 450.87 444.307 451.014C446.218 451.222 448.562 450.811 450.528 448.756C450.846 448.423 451 447.969 451 447.509V442.595C451 442.108 450.83 441.629 450.458 441.314C447.804 439.07 441.028 437.052 437.253 443.357C437.082 443.643 437 443.977 437 444.31V452.639M445 441.839C442 441.839 440.8 442.526 440 445.275" stroke="#0C0C0C" stroke-width="2" stroke-linecap="round"/>
<path d="M418 453.13C416.666 452.13 414 449.13 414 445.13C414 440.13 418 435.13 422 435.13C425.162 435.13 439.978 435.13 447.243 435.13C447.417 435.13 447.585 435.151 447.752 435.202C450.32 435.983 455 438.816 455 445.008C455 451.408 451.999 453.008 451.999 453.008" stroke="#0C0C0C" stroke-width="3" stroke-linecap="round"/>
<path d="M429.5 461.5H438" stroke="#0C0C0C" stroke-width="3" stroke-linecap="round"/>
<path d="M453 455.5H415.5V471.5C415.5 477.5 421.167 479.667 424 480H444C450 480 452.5 474 453 471V455.5Z" stroke="#0C0C0C" stroke-width="3" stroke-linecap="round"/>
<rect x="421" y="463" width="4" height="13" rx="2" fill="#34C759"/>
<rect x="428" y="463" width="4" height="13" rx="2" fill="#34C759"/>
<rect x="436" y="463" width="4" height="13" rx="2" fill="#34C759"/>
<rect x="443" y="463" width="4" height="13" rx="2" fill="#34C759"/>
<defs>
<filter id="filter0_d_28_40" x="16" y="106" width="107.5" height="52.0731" filterUnits="userSpaceOnUse" color-interpolation-filters="sRGB">
<feFlood flood-opacity="0" result="BackgroundImageFix"/>
<feColorMatrix in="SourceAlpha" type="matrix" values="0 0 0 0 0 0 0 0 0 0 0 0 0 0 0 0 0 0 127 0" result="hardAlpha"/>
<feOffset dy="4"/>
<feGaussianBlur stdDeviation="2"/>
<feComposite in2="hardAlpha" operator="out"/>
<feColorMatrix type="matrix" values="0 0 0 0 0.161705 0 0 0 0 0.764423 0 0 0 0 0.232022 0 0 0 0.17 0"/>
<feBlend mode="normal" in2="BackgroundImageFix" result="effect1_dropShadow_28_40"/>
<feBlend mode="normal" in="SourceGraphic" in2="effect1_dropShadow_28_40" result="shape"/>
</filter>
<filter id="filter1_d_28_40" x="15" y="192" width="107.5" height="52.0731" filterUnits="userSpaceOnUse" color-interpolation-filters="sRGB">
<feFlood flood-opacity="0" result="BackgroundImageFix"/>
<feColorMatrix in="SourceAlpha" type="matrix" values="0 0 0 0 0 0 0 0 0 0 0 0 0 0 0 0 0 0 127 0" result="hardAlpha"/>
<feOffset dy="4"/>
<feGaussianBlur stdDeviation="2"/>
<feComposite in2="hardAlpha" operator="out"/>
<feColorMatrix type="matrix" values="0 0 0 0 0.161705 0 0 0 0 0.764423 0 0 0 0 0.232022 0 0 0 0.17 0"/>
<feBlend mode="normal" in2="BackgroundImageFix" result="effect1_dropShadow_28_40"/>
<feBlend mode="normal" in="SourceGraphic" in2="effect1_dropShadow_28_40" result="shape"/>
</filter>
<filter id="filter2_d_28_40" x="16" y="278" width="107.5" height="52.0731" filterUnits="userSpaceOnUse" color-interpolation-filters="sRGB">
<feFlood flood-opacity="0" result="BackgroundImageFix"/>
<feColorMatrix in="SourceAlpha" type="matrix" values="0 0 0 0 0 0 0 0 0 0 0 0 0 0 0 0 0 0 127 0" result="hardAlpha"/>
<feOffset dy="4"/>
<feGaussianBlur stdDeviation="2"/>
<feComposite in2="hardAlpha" operator="out"/>
<feColorMatrix type="matrix" values="0 0 0 0 0.161705 0 0 0 0 0.764423 0 0 0 0 0.232022 0 0 0 0.17 0"/>
<feBlend mode="normal" in2="BackgroundImageFix" result="effect1_dropShadow_28_40"/>
<feBlend mode="normal" in="SourceGraphic" in2="effect1_dropShadow_28_40" result="shape"/>
</filter>
<filter id="filter3_d_28_40" x="16" y="361" width="107.5" height="52.0731" filterUnits="userSpaceOnUse" color-interpolation-filters="sRGB">
<feFlood flood-opacity="0" result="BackgroundImageFix"/>
<feColorMatrix in="SourceAlpha" type="matrix" values="0 0 0 0 0 0 0 0 0 0 0 0 0 0 0 0 0 0 127 0" result="hardAlpha"/>
<feOffset dy="4"/>
<feGaussianBlur stdDeviation="2"/>
<feComposite in2="hardAlpha" operator="out"/>
<feColorMatrix type="matrix" values="0 0 0 0 0.161705 0 0 0 0 0.764423 0 0 0 0 0.232022 0 0 0 0.17 0"/>
<feBlend mode="normal" in2="BackgroundImageFix" result="effect1_dropShadow_28_40"/>
<feBlend mode="normal" in="SourceGraphic" in2="effect1_dropShadow_28_40" result="shape"/>
</filter>
<filter id="filter4_d_28_40" x="16" y="451" width="107.5" height="52.0731" filterUnits="userSpaceOnUse" color-interpolation-filters="sRGB">
<feFlood flood-opacity="0" result="BackgroundImageFix"/>
<feColorMatrix in="SourceAlpha" type="matrix" values="0 0 0 0 0 0 0 0 0 0 0 0 0 0 0 0 0 0 127 0" result="hardAlpha"/>
<feOffset dy="4"/>
<feGaussianBlur stdDeviation="2"/>
<feComposite in2="hardAlpha" operator="out"/>
<feColorMatrix type="matrix" values="0 0 0 0 0.161705 0 0 0 0 0.764423 0 0 0 0 0.232022 0 0 0 0.17 0"/>
<feBlend mode="normal" in2="BackgroundImageFix" result="effect1_dropShadow_28_40"/>
<feBlend mode="normal" in="SourceGraphic" in2="effect1_dropShadow_28_40" result="shape"/>
</filter>
</defs>
</svg>
