<svg width="57" height="81" viewBox="0 0 57 81" fill="none" xmlns="http://www.w3.org/2000/svg">
<path d="M28.5 26C43.964 26 56.5 31.8203 56.5 39C56.5 46.1797 43.964 52 28.5 52C13.036 52 0.5 46.1797 0.5 39C0.5 31.8203 13.036 26 28.5 26ZM28.5 0C34.0228 0 38.5 4.47715 38.5 10C38.5 15.5228 34.0228 20 28.5 20C22.9772 20 18.5 15.5228 18.5 10C18.5 4.47715 22.9772 0 28.5 0Z" fill="#E3E3E3"/>
<path d="M5.40909 77V65.3636H9.34091C10.2538 65.3636 11 65.5284 11.5795 65.858C12.1629 66.1837 12.5947 66.625 12.875 67.1818C13.1553 67.7386 13.2955 68.3598 13.2955 69.0455C13.2955 69.7311 13.1553 70.3542 12.875 70.9148C12.5985 71.4754 12.1705 71.9223 11.5909 72.2557C11.0114 72.5852 10.2689 72.75 9.36364 72.75H6.54545V71.5H9.31818C9.94318 71.5 10.4451 71.392 10.8239 71.1761C11.2027 70.9602 11.4773 70.6686 11.6477 70.3011C11.822 69.9299 11.9091 69.5114 11.9091 69.0455C11.9091 68.5795 11.822 68.1629 11.6477 67.7955C11.4773 67.428 11.2008 67.1402 10.8182 66.9318C10.4356 66.7197 9.92803 66.6136 9.29545 66.6136H6.81818V77H5.40909ZM15.3835 77V68.2727H16.679V69.5909H16.7699C16.929 69.1591 17.2169 68.8087 17.6335 68.5398C18.0502 68.2708 18.5199 68.1364 19.0426 68.1364C19.1411 68.1364 19.2642 68.1383 19.4119 68.142C19.5597 68.1458 19.6714 68.1515 19.7472 68.1591V69.5227C19.7017 69.5114 19.5975 69.4943 19.4347 69.4716C19.2756 69.4451 19.107 69.4318 18.929 69.4318C18.5047 69.4318 18.1259 69.5208 17.7926 69.6989C17.4631 69.8731 17.2017 70.1155 17.0085 70.4261C16.8191 70.733 16.7244 71.0833 16.7244 71.4773V77H15.3835ZM24.6165 77.1818C23.8286 77.1818 23.1373 76.9943 22.5426 76.6193C21.9517 76.2443 21.4896 75.7197 21.1562 75.0455C20.8267 74.3712 20.6619 73.5833 20.6619 72.6818C20.6619 71.7727 20.8267 70.9792 21.1562 70.3011C21.4896 69.6231 21.9517 69.0966 22.5426 68.7216C23.1373 68.3466 23.8286 68.1591 24.6165 68.1591C25.4044 68.1591 26.0938 68.3466 26.6847 68.7216C27.2794 69.0966 27.7415 69.6231 28.071 70.3011C28.4044 70.9792 28.571 71.7727 28.571 72.6818C28.571 73.5833 28.4044 74.3712 28.071 75.0455C27.7415 75.7197 27.2794 76.2443 26.6847 76.6193C26.0938 76.9943 25.4044 77.1818 24.6165 77.1818ZM24.6165 75.9773C25.215 75.9773 25.7074 75.8239 26.0938 75.517C26.4801 75.2102 26.7661 74.8068 26.9517 74.3068C27.1373 73.8068 27.2301 73.2652 27.2301 72.6818C27.2301 72.0985 27.1373 71.5549 26.9517 71.0511C26.7661 70.5473 26.4801 70.1402 26.0938 69.8295C25.7074 69.5189 25.215 69.3636 24.6165 69.3636C24.018 69.3636 23.5256 69.5189 23.1392 69.8295C22.7528 70.1402 22.4669 70.5473 22.2812 71.0511C22.0956 71.5549 22.0028 72.0985 22.0028 72.6818C22.0028 73.2652 22.0956 73.8068 22.2812 74.3068C22.4669 74.8068 22.7528 75.2102 23.1392 75.517C23.5256 75.8239 24.018 75.9773 24.6165 75.9773ZM34.5043 68.2727V69.4091H29.7997V68.2727H34.5043ZM31.2088 77V67.0682C31.2088 66.5682 31.3262 66.1515 31.5611 65.8182C31.7959 65.4848 32.1009 65.2348 32.4759 65.0682C32.8509 64.9015 33.2467 64.8182 33.6634 64.8182C33.9929 64.8182 34.2618 64.8447 34.4702 64.8977C34.6785 64.9508 34.8338 65 34.9361 65.0455L34.5497 66.2045C34.4815 66.1818 34.3868 66.1534 34.2656 66.1193C34.1482 66.0852 33.9929 66.0682 33.7997 66.0682C33.3565 66.0682 33.0365 66.1799 32.8395 66.4034C32.6463 66.6269 32.5497 66.9545 32.5497 67.3864V77H31.2088ZM36.3835 77V68.2727H37.7244V77H36.3835ZM37.0653 66.8182C36.804 66.8182 36.5786 66.7292 36.3892 66.5511C36.2036 66.3731 36.1108 66.1591 36.1108 65.9091C36.1108 65.6591 36.2036 65.4451 36.3892 65.267C36.5786 65.089 36.804 65 37.0653 65C37.3267 65 37.5502 65.089 37.7358 65.267C37.9252 65.4451 38.0199 65.6591 38.0199 65.9091C38.0199 66.1591 37.9252 66.3731 37.7358 66.5511C37.5502 66.7292 37.3267 66.8182 37.0653 66.8182ZM41.5213 65.3636V77H40.1804V65.3636H41.5213ZM47.6364 77.1818C46.7955 77.1818 46.0701 76.9962 45.4602 76.625C44.8542 76.25 44.3864 75.7273 44.0568 75.0568C43.7311 74.3826 43.5682 73.5985 43.5682 72.7045C43.5682 71.8106 43.7311 71.0227 44.0568 70.3409C44.3864 69.6553 44.8447 69.1212 45.4318 68.7386C46.0227 68.3523 46.7121 68.1591 47.5 68.1591C47.9545 68.1591 48.4034 68.2348 48.8466 68.3864C49.2898 68.5379 49.6932 68.7841 50.0568 69.125C50.4205 69.4621 50.7102 69.9091 50.9261 70.4659C51.142 71.0227 51.25 71.7083 51.25 72.5227V73.0909H44.5227V71.9318H49.8864C49.8864 71.4394 49.7879 71 49.5909 70.6136C49.3977 70.2273 49.1212 69.9223 48.7614 69.6989C48.4053 69.4754 47.9848 69.3636 47.5 69.3636C46.9659 69.3636 46.5038 69.4962 46.1136 69.7614C45.7273 70.0227 45.4299 70.3636 45.2216 70.7841C45.0133 71.2045 44.9091 71.6553 44.9091 72.1364V72.9091C44.9091 73.5682 45.0227 74.1269 45.25 74.5852C45.4811 75.0398 45.8011 75.3864 46.2102 75.625C46.6193 75.8598 47.0947 75.9773 47.6364 75.9773C47.9886 75.9773 48.3068 75.928 48.5909 75.8295C48.8788 75.7273 49.1269 75.5758 49.3352 75.375C49.5436 75.1705 49.7045 74.9167 49.8182 74.6136L51.1136 74.9773C50.9773 75.4167 50.7481 75.803 50.4261 76.1364C50.1042 76.4659 49.7064 76.7235 49.233 76.9091C48.7595 77.0909 48.2273 77.1818 47.6364 77.1818Z" fill="white"/>
</svg>
