<svg width="53" height="91" viewBox="0 0 53 91" fill="none" xmlns="http://www.w3.org/2000/svg">
<path d="M26.3467 61.3955C30.5035 61.3956 33.8736 63.2489 33.874 65.5351C33.874 67.8216 30.5038 69.6756 26.3467 69.6758C22.1894 69.6758 18.8184 67.8217 18.8184 65.5351C18.8188 63.2488 22.1896 61.3955 26.3467 61.3955ZM6.39453 48.5459C9.09479 46.9869 12.9692 48.6418 15.0479 52.2422C17.1263 55.8424 16.6221 60.025 13.9219 61.584C11.2217 63.1425 7.34812 61.4876 5.26953 57.8877C3.19094 54.2874 3.69451 50.105 6.39453 48.5459ZM37.6377 52.2422C39.7164 48.6418 43.5908 46.9869 46.291 48.5459C48.9909 50.1051 49.4946 54.2875 47.416 57.8877C45.3373 61.4879 41.4629 63.1429 38.7627 61.584C36.0626 60.0249 35.5592 55.8424 37.6377 52.2422ZM26.3467 44.082C30.5037 44.0822 33.8738 47.4523 33.874 51.6093C33.874 55.7665 30.5038 59.1374 26.3467 59.1377C22.1894 59.1377 18.8184 55.7667 18.8184 51.6093C18.8185 47.4522 22.1895 44.082 26.3467 44.082ZM3.01074 33.5439C4.67367 33.5439 6.02246 36.9139 6.02246 41.0713C6.02245 45.2285 4.67366 48.5986 3.01074 48.5986C1.34794 48.5983 1.61588e-05 45.2283 0 41.0713C-1.81713e-07 36.9141 1.34793 33.5443 3.01074 33.5439ZM49.6816 33.5439C51.3445 33.5441 52.6924 36.914 52.6924 41.0713C52.6924 45.2285 51.3445 48.5985 49.6816 48.5986C48.0187 48.5986 46.6709 45.2285 46.6709 41.0713C46.6709 36.9139 48.0187 33.5439 49.6816 33.5439ZM16.5605 29.0273C20.7178 29.0273 24.0879 32.3974 24.0879 36.5547C24.0879 40.712 20.7179 44.082 16.5605 44.082C12.4032 44.082 9.0332 40.712 9.0332 36.5547C9.03322 32.3973 12.4032 29.0273 16.5605 29.0273ZM36.1318 29.0273C40.2892 29.0273 43.6592 32.3973 43.6592 36.5547C43.6592 40.712 40.2892 44.082 36.1318 44.082C31.9746 44.0819 28.6045 40.7119 28.6045 36.5547C28.6045 32.3974 31.9746 29.0274 36.1318 29.0273ZM6.96191 23.664C9.90133 20.7246 13.2369 19.2944 14.4131 20.4697C15.589 21.6456 14.1594 24.9822 11.2197 27.9218C8.28007 30.8615 4.94344 32.2911 3.76758 31.1152C2.59229 29.9391 4.02256 26.6034 6.96191 23.664ZM37.6416 20.4697C38.8175 19.2939 42.1541 20.7244 45.0938 23.664C48.0332 26.6036 49.4629 29.9393 48.2871 31.1152C47.1112 32.2911 43.7746 30.8615 40.835 27.9218C37.8954 24.9822 36.4658 21.6455 37.6416 20.4697ZM26.3467 21.5C30.5038 21.5001 33.874 22.8478 33.874 24.5107C33.874 26.1736 30.5038 27.5214 26.3467 27.5215C22.1894 27.5215 18.8184 26.1736 18.8184 24.5107C18.8184 22.8478 22.1894 21.5 26.3467 21.5ZM34.4385 5.28122C38.8479 0.871772 43.971 -1.15384 45.8818 0.756805C47.7926 2.66759 45.7669 7.79065 41.3574 12.2002C36.9479 16.6096 31.8248 18.6354 29.9141 16.7246C28.0034 14.8137 30.0291 9.69065 34.4385 5.28122ZM6.98828 0.719696C8.89902 -1.19104 14.0222 0.833861 18.4316 5.24313C22.8412 9.65264 24.8668 14.7767 22.9561 16.6875C21.0453 18.5982 15.9221 16.5724 11.5127 12.1631C7.10321 7.75357 5.07756 2.63051 6.98828 0.719696Z" fill="#E3E3E3"/>
<path d="M15.8153 91V79.3636H19.7472C20.6563 79.3636 21.4025 79.5189 21.9858 79.8295C22.5691 80.1364 23.0009 80.5587 23.2812 81.0966C23.5616 81.6345 23.7017 82.2462 23.7017 82.9318C23.7017 83.6174 23.5616 84.2254 23.2812 84.7557C23.0009 85.286 22.571 85.7027 21.9915 86.0057C21.4119 86.3049 20.6714 86.4545 19.7699 86.4545H16.5881V85.1818H19.7244C20.3456 85.1818 20.8456 85.0909 21.2244 84.9091C21.607 84.7273 21.8835 84.4697 22.054 84.1364C22.2282 83.7992 22.3153 83.3977 22.3153 82.9318C22.3153 82.4659 22.2282 82.0587 22.054 81.7102C21.8797 81.3617 21.6013 81.0928 21.2188 80.9034C20.8362 80.7102 20.3305 80.6136 19.7017 80.6136H17.2244V91H15.8153ZM21.2926 85.7727L24.1562 91H22.5199L19.7017 85.7727H21.2926ZM26.0497 91V79.3636H29.9815C30.8944 79.3636 31.6406 79.5284 32.2202 79.858C32.8035 80.1837 33.2353 80.625 33.5156 81.1818C33.7959 81.7386 33.9361 82.3598 33.9361 83.0455C33.9361 83.7311 33.7959 84.3542 33.5156 84.9148C33.2391 85.4754 32.8111 85.9223 32.2315 86.2557C31.652 86.5852 30.9096 86.75 30.0043 86.75H27.1861V85.5H29.9588C30.5838 85.5 31.0857 85.392 31.4645 85.1761C31.8433 84.9602 32.1179 84.6686 32.2884 84.3011C32.4626 83.9299 32.5497 83.5114 32.5497 83.0455C32.5497 82.5795 32.4626 82.1629 32.2884 81.7955C32.1179 81.428 31.8414 81.1402 31.4588 80.9318C31.0762 80.7197 30.5687 80.6136 29.9361 80.6136H27.4588V91H26.0497ZM36.0241 91V82.2727H37.3651V91H36.0241ZM36.706 80.8182C36.4446 80.8182 36.2192 80.7292 36.0298 80.5511C35.8442 80.3731 35.7514 80.1591 35.7514 79.9091C35.7514 79.6591 35.8442 79.4451 36.0298 79.267C36.2192 79.089 36.4446 79 36.706 79C36.9673 79 37.1908 79.089 37.3764 79.267C37.5658 79.4451 37.6605 79.6591 37.6605 79.9091C37.6605 80.1591 37.5658 80.3731 37.3764 80.5511C37.1908 80.7292 36.9673 80.8182 36.706 80.8182Z" fill="white"/>
</svg>
