<svg width="108" height="53" viewBox="0 0 108 53" fill="none" xmlns="http://www.w3.org/2000/svg">
<g filter="url(#filter0_d_85_168)">
<path d="M5 0C7.65997 0 11.6275 0.789907 14.959 3.18848C18.2515 5.55909 20.8568 9.45976 20.9932 15.5H34.5C36.9933 15.5 40.7109 16.2398 43.834 18.4883C47.0082 20.7737 49.4999 24.5741 49.5 30.5C49.5 35.8186 51.4589 38.7382 53.7539 40.3135C56.1093 41.93 58.9736 42.2358 60.8809 42.0068L60.9404 42H71C72.9233 42 75.8309 41.4148 78.2285 39.6885C80.5751 37.9989 82.5 35.1739 82.5 30.5C82.5001 25.1579 84.8783 21.5048 87.8828 19.1504C90.5326 17.074 93.6572 16.0131 96.0605 15.6201C96.1521 14.9359 96.3683 14.1335 96.8457 13.3828C97.5811 12.2264 98.8574 11.3083 100.88 11.0645L101.148 11.0361C101.42 11.0121 101.704 11 102 11V15.252H103.5V17.252H102V21.5C101.706 21.5 101.423 21.4884 101.153 21.4658L100.887 21.4395C99.0879 21.2343 97.866 20.516 97.0898 19.5234C96.6152 18.9163 96.3414 18.2499 96.1826 17.627C94.0798 18.0007 91.3839 18.9486 89.1172 20.7246C86.5385 22.7453 84.5001 25.8425 84.5 30.5C84.5 35.8258 82.2581 39.2512 79.3965 41.3115C76.5859 43.335 73.2433 44 71 44H61.0498C58.7911 44.2559 55.4458 43.9 52.6221 41.9619C49.7089 39.9623 47.5 36.3816 47.5 30.5C47.4999 25.226 45.3252 22.0259 42.666 20.1113C39.9558 18.16 36.6733 17.5 34.5 17.5H20.9463C20.5604 22.9746 18.0661 26.5744 14.959 28.8115C11.6275 31.2101 7.65997 32 5 32H4V0H5ZM6 29.959C8.2751 29.7836 11.2634 29.0083 13.791 27.1885C16.6584 25.1239 19 21.6739 19 16C19 10.3261 16.6584 6.87614 13.791 4.81152C11.2634 2.99164 8.27511 2.21538 6 2.04004V29.959ZM100 13.3115C99.2502 13.5914 98.8096 14.023 98.5342 14.4561C98.1243 15.1006 98.0072 15.8663 98.001 16.4502C98.0715 17.1003 98.2528 17.7635 98.666 18.292C98.9368 18.6382 99.3465 18.9765 100 19.207V13.3115Z" fill="#469758"/>
</g>
<defs>
<filter id="filter0_d_85_168" x="0" y="0" width="107.5" height="52.0731" filterUnits="userSpaceOnUse" color-interpolation-filters="sRGB">
<feFlood flood-opacity="0" result="BackgroundImageFix"/>
<feColorMatrix in="SourceAlpha" type="matrix" values="0 0 0 0 0 0 0 0 0 0 0 0 0 0 0 0 0 0 127 0" result="hardAlpha"/>
<feOffset dy="4"/>
<feGaussianBlur stdDeviation="2"/>
<feComposite in2="hardAlpha" operator="out"/>
<feColorMatrix type="matrix" values="0 0 0 0 0.161705 0 0 0 0 0.764423 0 0 0 0 0.232022 0 0 0 0.17 0"/>
<feBlend mode="normal" in2="BackgroundImageFix" result="effect1_dropShadow_85_168"/>
<feBlend mode="normal" in="SourceGraphic" in2="effect1_dropShadow_85_168" result="shape"/>
</filter>
</defs>
</svg>
