<svg width="141" height="63" viewBox="0 0 141 63" fill="none" xmlns="http://www.w3.org/2000/svg">
<path d="M1 18C3.65997 18 7.62752 18.7899 10.959 21.1885C14.2515 23.5591 16.8568 27.4598 16.9932 33.5H30.5C32.9933 33.5 36.7109 34.2398 39.834 36.4883C43.0082 38.7737 45.4999 42.5741 45.5 48.5C45.5 53.8186 47.4589 56.7382 49.7539 58.3135C52.1093 59.93 54.9736 60.2358 56.8809 60.0068L56.9404 60H67C68.9233 60 71.8309 59.4148 74.2285 57.6885C76.5751 55.9989 78.5 53.1739 78.5 48.5C78.5001 43.1579 80.8783 39.5048 83.8828 37.1504C86.5326 35.074 89.6572 34.0131 92.0605 33.6201C92.1521 32.9359 92.3683 32.1335 92.8457 31.3828C93.5811 30.2264 94.8574 29.3083 96.8799 29.0645L97.1484 29.0361C97.4202 29.0121 97.704 29 98 29V33.252H99.5V35.252H98V39.5C97.7055 39.5 97.4234 39.4884 97.1533 39.4658L96.8867 39.4395C95.0879 39.2343 93.866 38.516 93.0898 37.5234C92.6152 36.9163 92.3414 36.2499 92.1826 35.627C90.0798 36.0007 87.3839 36.9486 85.1172 38.7246C82.5385 40.7453 80.5001 43.8425 80.5 48.5C80.5 53.8258 78.2581 57.2512 75.3965 59.3115C72.5859 61.335 69.2433 62 67 62H57.0498C54.7911 62.2559 51.4458 61.9 48.6221 59.9619C45.7089 57.9623 43.5 54.3816 43.5 48.5C43.4999 43.226 41.3252 40.0259 38.666 38.1113C35.9558 36.16 32.6733 35.5 30.5 35.5H16.9463C16.5604 40.9746 14.0661 44.5744 10.959 46.8115C7.62752 49.2101 3.65997 50 1 50H0V18H1ZM2 47.959C4.2751 47.7836 7.26343 47.0083 9.79102 45.1885C12.6584 43.1239 15 39.6739 15 34C15 28.3261 12.6584 24.8761 9.79102 22.8115C7.2634 20.9916 4.27511 20.2154 2 20.04V47.959ZM96 31.3115C95.2502 31.5914 94.8096 32.023 94.5342 32.4561C94.1243 33.1006 94.0072 33.8663 94.001 34.4502C94.0715 35.1003 94.2528 35.7635 94.666 36.292C94.9368 36.6382 95.3465 36.9765 96 37.207V31.3115Z" fill="#469758"/>
<path d="M112.5 20.1296V20.1296C112.5 18.7967 111.017 17.8697 109.692 18.014C107.781 18.222 105.437 17.8107 103.471 15.7556C103.153 15.4229 103 14.9691 103 14.5089V9.5951C103 9.10766 103.169 8.62895 103.541 8.3142C106.195 6.07024 112.971 4.05168 116.746 10.357C116.917 10.6431 117 10.977 117 11.3104V19.6387M109 8.83866C112 8.83866 113.2 9.52593 114 12.275" stroke="#0C0C0C" stroke-width="2" stroke-linecap="round"/>
<path d="M125.5 20.1296V20.1296C125.5 18.7967 126.982 17.8697 128.307 18.014C130.218 18.222 132.562 17.8107 134.528 15.7556C134.846 15.4229 135 14.9691 135 14.5089V9.5951C135 9.10766 134.83 8.62895 134.458 8.3142C131.804 6.07024 125.028 4.05168 121.253 10.357C121.082 10.6431 121 10.977 121 11.3104V19.6387M129 8.83866C126 8.83866 124.8 9.52593 124 12.275" stroke="#0C0C0C" stroke-width="2" stroke-linecap="round"/>
<path d="M102 20.1296C100.666 19.1296 97.9995 16.1296 97.9995 12.1296C97.9995 7.12961 102 2.12961 106 2.12961C109.162 2.12961 123.978 2.12961 131.243 2.12961C131.417 2.12961 131.585 2.15089 131.752 2.20154C134.32 2.98301 139 5.81602 139 12.0078C139 18.4078 135.999 20.0078 135.999 20.0078" stroke="#0C0C0C" stroke-width="3" stroke-linecap="round"/>
<path d="M113.5 28.5H122" stroke="#0C0C0C" stroke-width="3" stroke-linecap="round"/>
<path d="M137 22.5H99.5V38.5C99.5 44.5 105.167 46.6667 108 47H128C134 47 136.5 41 137 38V22.5Z" stroke="#0C0C0C" stroke-width="3" stroke-linecap="round"/>
<rect x="105" y="30" width="4" height="13" rx="2" fill="#34C759"/>
</svg>
