<svg width="192" height="80" viewBox="0 0 192 80" fill="none" xmlns="http://www.w3.org/2000/svg">
<path d="M142 15C155.527 15 167.824 17.9935 176.774 22.8838C185.687 27.7537 191.5 34.6456 191.5 42.5C191.5 50.3544 185.687 57.2463 176.774 62.1162C167.824 67.0065 155.527 70 142 70C128.473 70 116.176 67.0065 107.226 62.1162C98.7514 57.486 93.0797 51.0277 92.542 43.6523C90.4237 44.043 87.6791 44.9902 85.3496 46.7373C82.642 48.768 80.5001 51.8649 80.5 56.5C80.5 61.8258 78.2581 65.2512 75.3965 67.3115C72.5859 69.335 69.2433 70 67 70H57.0498C54.7911 70.2559 51.4458 69.9 48.6221 67.9619C45.7089 65.9623 43.5 62.3816 43.5 56.5C43.4999 51.226 41.3252 48.0259 38.666 46.1113C35.9558 44.16 32.6733 43.5 30.5 43.5H16.9463C16.5604 48.9746 14.0661 52.5744 10.959 54.8115C7.62752 57.2101 3.65997 58 1 58H0V26H1C3.65997 26 7.62752 26.7899 10.959 29.1885C14.2515 31.5591 16.8568 35.4598 16.9932 41.5H30.5C32.9933 41.5 36.7109 42.2398 39.834 44.4883C43.0082 46.7737 45.4999 50.5741 45.5 56.5C45.5 61.8186 47.4589 64.7382 49.7539 66.3135C52.1093 67.93 54.9736 68.2358 56.8809 68.0068L56.9404 68H67C68.9233 68 71.8309 67.4148 74.2285 65.6885C76.5751 63.9989 78.5 61.1739 78.5 56.5C78.5001 51.1356 81.0247 47.482 84.1504 45.1377C86.896 43.0785 90.1088 42.0211 92.5254 41.625C92.9393 34.1343 98.6454 27.572 107.226 22.8838C116.176 17.9935 128.473 15 142 15ZM142 17C128.742 17 116.788 19.9389 108.185 24.6396C99.5441 29.3608 94.5 35.719 94.5 42.5C94.5 49.281 99.5441 55.6392 108.185 60.3604C116.788 65.0611 128.742 68 142 68C155.258 68 167.212 65.0611 175.815 60.3604C184.456 55.6391 189.5 49.2811 189.5 42.5C189.5 35.7189 184.456 29.3609 175.815 24.6396C167.212 19.9389 155.258 17 142 17ZM138.85 37.2715H159.5L136.05 64L145.15 44.6729H124.5L145.15 20L138.85 37.2715ZM2 55.959C4.2751 55.7836 7.26343 55.0083 9.79102 53.1885C12.6584 51.1239 15 47.6739 15 42C15 36.3261 12.6584 32.8761 9.79102 30.8115C7.2634 28.9916 4.27511 28.2154 2 28.04V55.959ZM128.782 42.6729H148.303L146.959 45.5244L143.901 52.0166L155.084 39.2715H135.991L136.971 36.5859L139.361 30.0312L128.782 42.6729Z" fill="#469758"/>
<rect x="121.5" y="16.5" width="47" height="47" rx="6.5" fill="#7C7C7C" stroke="#0C0C0C" stroke-width="3"/>
<rect x="170" y="26" width="2" height="5" fill="#0C0C0C"/>
<path d="M134 0H156C156 0 156 10 157 12C158 14 159 15 159 15H131C131 15 132 14 133 12C134 10 134 0 134 0Z" fill="#0C0C0C"/>
<path d="M133 80H155C155 80 155 70 156 68C157 66 158 65 158 65H130C130 65 131 66 132 68C133 70 133 80 133 80Z" fill="#0C0C0C"/>
<rect x="133" y="52" width="22" height="9" rx="3" fill="#34C759"/>
<path d="M133 44C133 42.3431 134.343 41 136 41H152C153.657 41 155 42.3431 155 44V47C155 48.6569 153.657 50 152 50H136C134.343 50 133 48.6569 133 47V44Z" fill="#34C759"/>
<rect x="133" y="30" width="22" height="9" rx="3" fill="#34C759"/>
<rect x="133" y="19" width="22" height="9" rx="3" fill="#34C759"/>
</svg>
