<svg width="200" height="159" viewBox="0 0 200 159" fill="none" xmlns="http://www.w3.org/2000/svg">
<g filter="url(#filter0_d_11_17)">
<path d="M146 95C159.527 95 171.824 97.9935 180.774 102.884C189.687 107.754 195.5 114.646 195.5 122.5C195.5 130.354 189.687 137.246 180.774 142.116C171.824 147.007 159.527 150 146 150C132.473 150 120.176 147.007 111.226 142.116C102.751 137.486 97.0797 131.028 96.542 123.652C94.4237 124.043 91.6791 124.99 89.3496 126.737C86.642 128.768 84.5001 131.865 84.5 136.5C84.5 141.826 82.2581 145.251 79.3965 147.312C76.5859 149.335 73.2433 150 71 150H61.0498C58.7911 150.256 55.4458 149.9 52.6221 147.962C49.7089 145.962 47.5 142.382 47.5 136.5C47.4999 131.226 45.3252 128.026 42.666 126.111C39.9558 124.16 36.6733 123.5 34.5 123.5H20.9463C20.5604 128.975 18.0661 132.574 14.959 134.812C11.6275 137.21 7.65997 138 5 138H4V106H5C7.65997 106 11.6275 106.79 14.959 109.188C18.2515 111.559 20.8568 115.46 20.9932 121.5H34.5C36.9933 121.5 40.7109 122.24 43.834 124.488C47.0082 126.774 49.4999 130.574 49.5 136.5C49.5 141.819 51.4589 144.738 53.7539 146.313C56.1093 147.93 58.9736 148.236 60.8809 148.007L60.9404 148H71C72.9233 148 75.8309 147.415 78.2285 145.688C80.5751 143.999 82.5 141.174 82.5 136.5C82.5001 131.136 85.0247 127.482 88.1504 125.138C90.896 123.079 94.1088 122.021 96.5254 121.625C96.9393 114.134 102.645 107.572 111.226 102.884C120.176 97.9935 132.473 95 146 95ZM146 97C132.742 97 120.788 99.9389 112.185 104.64C103.544 109.361 98.5 115.719 98.5 122.5C98.5 129.281 103.544 135.639 112.185 140.36C120.788 145.061 132.742 148 146 148C159.258 148 171.212 145.061 179.815 140.36C188.456 135.639 193.5 129.281 193.5 122.5C193.5 115.719 188.456 109.361 179.815 104.64C171.212 99.9389 159.258 97 146 97ZM142.85 117.271H163.5L140.05 144L149.15 124.673H128.5L149.15 100L142.85 117.271ZM6 135.959C8.2751 135.784 11.2634 135.008 13.791 133.188C16.6584 131.124 19 127.674 19 122C19 116.326 16.6584 112.876 13.791 110.812C11.2634 108.992 8.27511 108.215 6 108.04V135.959ZM132.782 122.673H152.303L150.959 125.524L147.901 132.017L159.084 119.271H139.991L140.971 116.586L143.361 110.031L132.782 122.673Z" fill="#469758"/>
</g>
<path d="M110 10C110 5.58172 113.582 2 118 2H174C178.418 2 182 5.58172 182 10V127C182 131.418 178.418 135 174 135H118C113.582 135 110 131.418 110 127V10Z" fill="#3C3C3C" stroke="#0C0C0C" stroke-width="3"/>
<path d="M155.653 7.0332C156.41 7.11 157 7.74873 157 8.52539C157 9.30205 156.41 9.94078 155.653 10.0176L155.5 10.0254H131.5C130.672 10.0254 130 9.35382 130 8.52539C130 7.69696 130.672 7.02539 131.5 7.02539H155.5L155.653 7.0332ZM160.615 7.00391C161.373 7.06154 161.979 7.68559 161.999 8.46191C162.019 9.23807 161.445 9.89105 160.691 9.9873L160.538 9.99902L159.538 10.0254C158.71 10.0464 158.021 9.39159 158 8.56348C157.979 7.73538 158.634 7.04649 159.462 7.02539L160.462 7L160.615 7.00391Z" fill="#0C0C0C"/>
<path d="M130 129.5H162" stroke="#7C7C7C" stroke-linecap="round"/>
<rect x="124" y="102" width="44" height="17" rx="3" fill="#34C759"/>
<defs>
<filter id="filter0_d_11_17" x="0" y="95" width="199.5" height="63.0731" filterUnits="userSpaceOnUse" color-interpolation-filters="sRGB">
<feFlood flood-opacity="0" result="BackgroundImageFix"/>
<feColorMatrix in="SourceAlpha" type="matrix" values="0 0 0 0 0 0 0 0 0 0 0 0 0 0 0 0 0 0 127 0" result="hardAlpha"/>
<feOffset dy="4"/>
<feGaussianBlur stdDeviation="2"/>
<feComposite in2="hardAlpha" operator="out"/>
<feColorMatrix type="matrix" values="0 0 0 0 0.127084 0 0 0 0 0.774038 0 0 0 0 0.0930335 0 0 0 0.25 0"/>
<feBlend mode="normal" in2="BackgroundImageFix" result="effect1_dropShadow_11_17"/>
<feBlend mode="normal" in="SourceGraphic" in2="effect1_dropShadow_11_17" result="shape"/>
</filter>
</defs>
</svg>
